<svg xmlns="http://www.w3.org/2000/svg" width="1110" height="1110" viewBox="0 0 1110 1110" version="1.1"><path d="" stroke="none" fill="#187444" fill-rule="evenodd"/><path d="M 286 170.656 C 251.467 174.155, 221.696 188.207, 197.452 212.452 C 176.087 233.816, 162.955 258.735, 157.375 288.500 C 155.573 298.112, 155.500 308.412, 155.500 554 L 155.500 809.500 157.756 819.688 C 164.401 849.692, 177.943 874.055, 199.639 895.036 C 219.217 913.970, 241.230 925.726, 269.500 932.346 L 278.500 934.454 540.500 934.780 C 733.813 935.021, 804.991 934.804, 812 933.954 C 873.038 926.554, 921.534 881.590, 935.244 819.688 L 937.500 809.500 937.500 553 C 937.500 310.686, 937.401 296.015, 935.714 287.730 C 929.684 258.122, 916.461 233.323, 895.566 212.440 C 874.729 191.614, 852.002 179.322, 822.102 172.708 L 812.500 170.584 551 170.443 C 407.175 170.365, 287.925 170.461, 286 170.656 M 281.112 229.545 C 249.094 236.491, 223.187 261.643, 214.723 294 L 212.500 302.500 212.500 552 C 212.500 790.348, 212.582 801.849, 214.332 809.311 C 222.205 842.882, 247.094 867.795, 280.609 875.650 C 288.179 877.425, 299.016 877.500, 547 877.500 C 791.371 877.500, 805.883 877.403, 812.500 875.723 C 824.226 872.747, 832.892 868.985, 841.902 862.958 C 859.819 850.972, 871.827 834.240, 878.204 812.374 L 880.500 804.500 880.805 557.500 C 881.032 372.996, 880.814 308.602, 879.943 303 C 874.927 270.741, 854.641 245.116, 824.888 233.456 C 810.121 227.669, 826.936 227.993, 545.792 228.079 C 329.611 228.146, 286.458 228.385, 281.112 229.545 M 527 306.590 C 486.532 311.279, 459.087 319.546, 428.926 336.131 C 409.158 347.001, 393.185 358.905, 376.128 375.479 C 335.036 415.406, 311.105 463.384, 302.794 522.500 C 300.851 536.324, 301.193 572.896, 303.402 587.500 C 320.460 700.253, 408.737 785.848, 520.500 798.005 C 532.081 799.264, 560.919 799.264, 572.500 798.005 C 601.939 794.803, 627.564 787.300, 654.500 773.998 C 702.430 750.326, 740.597 712.838, 764.451 666 C 778.162 639.079, 785.677 614.989, 790.186 583.500 C 792.136 569.877, 791.839 532.208, 789.668 518 C 785.563 491.128, 777.990 466.762, 766.516 443.500 C 730.493 370.473, 662.464 320.687, 582 308.466 C 572.045 306.953, 534.818 305.684, 527 306.590 M 534 363.078 C 448.669 368.724, 378.606 431.267, 360.924 517.577 C 357.935 532.166, 357.185 562.613, 359.436 578 C 371.191 658.374, 428.743 720.876, 507.117 738.383 C 567.238 751.812, 631.015 733.588, 676.367 690.019 C 707.742 659.878, 727.131 622.122, 733.448 578.872 C 735.453 565.139, 735.457 539.897, 733.455 526.128 C 725.576 471.945, 694.948 423.638, 649.500 393.715 C 615.301 371.197, 574.572 360.394, 534 363.078 M 753.286 763.387 C 738.404 768.264, 730 779.663, 730 794.973 C 730 808.314, 736.735 819.261, 748.500 825.043 C 752.716 827.115, 754.911 827.493, 762.500 827.458 C 770.285 827.421, 772.204 827.050, 776.717 824.708 C 783.331 821.275, 788.258 816.354, 791.726 809.717 C 794.062 805.246, 794.456 803.284, 794.476 796 C 794.493 789.956, 793.943 786.056, 792.573 782.503 C 790.033 775.918, 782.254 767.786, 775.864 765.037 C 769.504 762.301, 758.952 761.529, 753.286 763.387" stroke="none" fill="#147444" fill-rule="evenodd"/></svg>