<svg xmlns="http://www.w3.org/2000/svg" width="1280" height="1280" viewBox="0 0 1280 1280" version="1.1"><path d="M 908.728 409.722 C 910.503 409.943, 913.653 409.946, 915.728 409.730 C 917.802 409.513, 916.350 409.333, 912.500 409.328 C 908.650 409.324, 906.952 409.501, 908.728 409.722 M 931.500 409.591 C 936.327 410.358, 948 410.494, 948 409.783 C 948 409.352, 943.837 409.061, 938.750 409.136 C 933.663 409.211, 930.400 409.416, 931.500 409.591 M 519.500 439.388 C 522.800 440.113, 526.767 441.223, 528.315 441.853 C 532.441 443.534, 532.914 443.226, 529.500 441.082 C 527.765 439.992, 523.760 438.960, 520 438.633 L 513.500 438.069 519.500 439.388 M 663.105 439.085 C 661.787 439.612, 660.942 440.275, 661.226 440.559 C 661.509 440.843, 662.890 440.551, 664.294 439.912 C 667.571 438.419, 673.015 439.437, 676.526 442.199 L 679.256 444.346 678.067 442.125 C 676.035 438.328, 668.716 436.840, 663.105 439.085 M 373.500 440.025 C 378.450 440.423, 383.288 441.078, 384.250 441.481 C 385.239 441.895, 386 441.779, 386 441.214 C 386 439.479, 383.109 438.996, 373.668 439.151 L 364.500 439.301 373.500 440.025 M 431.863 447.750 C 431.664 449.262, 431.767 452.750, 432.093 455.500 C 432.626 459.998, 432.702 459.722, 432.843 452.750 C 433.001 444.967, 432.541 442.622, 431.863 447.750 M 361.209 455.750 L 361 466 366.500 466 C 369.525 466, 372 465.616, 372 465.147 C 372 464.678, 369.767 464.508, 367.038 464.770 L 362.075 465.247 361.747 455.374 L 361.419 445.500 361.209 455.750 M 577.642 468.147 C 576.794 476.267, 576.975 496.212, 577.954 502.500 C 578.465 505.783, 578.779 499.688, 578.866 484.750 C 578.940 472.238, 578.839 462, 578.642 462 C 578.446 462, 577.996 464.766, 577.642 468.147 M 432.343 470.500 C 432.346 474.900, 432.522 476.576, 432.733 474.224 C 432.945 471.872, 432.942 468.272, 432.727 466.224 C 432.512 464.176, 432.339 466.100, 432.343 470.500 M 1064.487 470.980 C 1065.869 473.169, 1067 475.257, 1067 475.621 C 1067 475.984, 1067.858 478.130, 1068.907 480.390 C 1073.201 489.645, 1075.349 500.061, 1075.426 512 C 1075.467 518.325, 1075.174 525.525, 1074.775 528 L 1074.049 532.500 1075.598 527.500 C 1077.707 520.691, 1077.701 503.520, 1075.585 494.500 C 1073.908 487.348, 1064.504 467, 1062.876 467 C 1062.380 467, 1063.106 468.791, 1064.487 470.980 M 367.083 471.372 C 367.313 471.576, 371.325 472.002, 376 472.318 C 381.162 472.667, 383.518 472.560, 382 472.046 C 379.577 471.226, 366.244 470.623, 367.083 471.372 M 361.058 488.083 C 361.089 494.913, 361.503 502.300, 361.977 504.500 C 362.517 507.006, 362.636 502.523, 362.296 492.500 C 361.996 483.700, 361.583 476.313, 361.376 476.083 C 361.169 475.854, 361.026 481.254, 361.058 488.083 M 648.667 494.667 C 648.300 495.033, 648.007 497.396, 648.015 499.917 C 648.027 503.276, 648.293 504.100, 649.015 503 C 649.556 502.175, 649.911 499.813, 649.804 497.750 C 649.590 493.639, 649.618 493.715, 648.667 494.667 M 792.735 498.924 C 791.685 502.909, 798.008 519.887, 801.829 523.345 C 803.175 524.563, 802.536 522.703, 799.842 517.562 C 797.536 513.161, 795.347 507.157, 794.622 503.242 C 793.662 498.056, 793.226 497.060, 792.735 498.924 M 352.500 510 C 352.113 510.626, 354.057 510.974, 357.691 510.930 C 361.861 510.879, 362.936 510.617, 361.500 510 C 358.707 508.800, 353.242 508.800, 352.500 510 M 404 510 C 402.944 510.682, 404.277 510.953, 408.500 510.914 C 412.767 510.875, 413.922 510.611, 412.500 510 C 409.772 508.828, 405.814 508.828, 404 510 M 508.843 510.974 C 512.573 512.614, 521.147 513.232, 525.500 512.173 C 529.071 511.305, 528.534 511.189, 520.500 511.087 C 515.550 511.024, 510.375 510.741, 509 510.458 L 506.500 509.944 508.843 510.974 M 656.999 511.121 C 657.001 512.194, 666.659 513.078, 670.923 512.396 C 677.668 511.318, 675.544 510.500, 665.997 510.500 C 661.048 510.500, 656.999 510.780, 656.999 511.121 M 1273.687 548.074 C 1271.078 551.333, 1269.226 554, 1269.571 554 C 1270.283 554, 1276 548.046, 1276 547.305 C 1276 547.038, 1276.973 546.033, 1278.162 545.070 C 1279.352 544.107, 1279.898 543.055, 1279.377 542.733 C 1278.855 542.411, 1276.295 544.814, 1273.687 548.074 M 622.500 558 L 610.500 558.598 628 558.784 C 637.948 558.889, 646.147 558.551, 647 558 C 648.627 556.949, 643.607 556.949, 622.500 558 M 656.784 618.738 C 659.689 618.941, 664.189 618.939, 666.784 618.734 C 669.378 618.528, 667 618.363, 661.500 618.365 C 656 618.368, 653.878 618.536, 656.784 618.738 M 19.187 832.010 C 12.415 836.954, 5.890 841.014, 4.687 841.030 C 2.663 841.059, 2.636 841.140, 4.325 842.122 C 6.584 843.435, 13.787 838.934, 24.281 829.653 C 26.051 828.086, 28.512 826.410, 29.750 825.927 C 30.988 825.445, 32 824.588, 32 824.025 C 32 823.461, 31.887 823.004, 31.750 823.010 C 31.613 823.015, 25.959 827.065, 19.187 832.010" stroke="none" fill="#e4e4e4" fill-rule="evenodd"/><path d="M 908 400.112 C 904.425 400.573, 898.426 401.190, 894.670 401.483 C 890.913 401.776, 887.088 402.405, 886.170 402.880 C 885.251 403.355, 882.250 404.069, 879.500 404.466 C 876.750 404.863, 874.050 405.543, 873.500 405.978 C 872.950 406.413, 870.925 407.070, 869 407.438 C 863.974 408.399, 857.770 410.849, 846 416.521 C 833.713 422.443, 825.730 428.170, 815.432 438.449 C 807.073 446.792, 798.480 459.101, 797.674 463.884 C 797.525 464.773, 796.923 466.400, 796.336 467.500 C 795.750 468.600, 795.472 470.063, 795.718 470.750 C 795.965 471.438, 795.642 472, 795 472 C 794.358 472, 794.035 472.563, 794.282 473.250 C 794.528 473.938, 794.295 475.342, 793.764 476.372 C 793.234 477.401, 792.672 483.251, 792.518 489.372 C 792.363 495.492, 792.566 499.600, 792.970 498.500 C 793.498 497.062, 793.909 498.135, 794.433 502.317 C 794.897 506.030, 796.677 511.155, 799.354 516.486 C 801.660 521.080, 803.122 524.576, 802.603 524.254 C 802.083 523.933, 802.523 524.856, 803.579 526.304 C 804.636 527.752, 806.089 528.951, 806.809 528.969 C 807.529 528.986, 807.882 529.381, 807.595 529.847 C 807.307 530.313, 808.405 531.972, 810.036 533.534 C 811.666 535.096, 813 536.117, 813 535.802 C 813 535.488, 814.645 536.737, 816.655 538.578 C 818.665 540.420, 820.690 541.691, 821.155 541.404 C 821.620 541.117, 822 541.305, 822 541.822 C 822 542.765, 831.306 547.857, 834.041 548.411 C 834.843 548.573, 837.117 549.424, 839.092 550.301 C 841.068 551.178, 843.656 551.641, 844.842 551.331 C 846.117 550.998, 847 551.231, 847 551.902 C 847 552.587, 847.910 552.810, 849.289 552.464 C 850.548 552.148, 852.911 552.405, 854.539 553.035 C 858.315 554.496, 875.557 555.159, 879.500 553.995 C 881.150 553.507, 885.435 552.874, 889.021 552.587 C 894.625 552.140, 902.016 550.567, 920.284 545.934 C 922.365 545.407, 924.840 544.563, 925.784 544.060 C 927.712 543.033, 930.903 541.824, 932.683 541.447 C 934.447 541.073, 945.367 535.425, 950.095 532.440 C 954.786 529.479, 966.224 518.891, 965.507 518.174 C 965.248 517.915, 965.898 516.956, 966.951 516.042 C 970.119 513.295, 970.513 509.556, 967.891 507.113 C 966.644 505.951, 965.068 505, 964.389 505 C 963.710 505, 960.982 507.575, 958.327 510.723 C 955.672 513.870, 952.213 517.583, 950.641 518.973 C 947.230 521.987, 932.930 530.951, 931.485 530.980 C 930.927 530.991, 928.790 531.901, 926.735 533.002 C 924.681 534.103, 923 534.789, 923 534.527 C 923 534.264, 921.763 534.525, 920.250 535.107 C 914.867 537.177, 898.423 541.232, 893.714 541.651 C 891.082 541.885, 887.790 542.509, 886.399 543.038 C 885.008 543.567, 877.661 544, 870.072 544 C 853.989 544, 844.500 542.074, 832.218 536.315 C 826.060 533.427, 822.834 531.004, 816.259 524.322 C 811.726 519.717, 808.083 515.623, 808.163 515.224 C 808.243 514.826, 807.605 512.925, 806.745 511 C 805.886 509.075, 805.097 507.050, 804.992 506.500 C 804.888 505.950, 804.428 504.800, 803.970 503.944 C 802.648 501.474, 802.399 477.700, 803.691 477.270 C 804.294 477.069, 804.558 476.026, 804.277 474.952 C 803.967 473.765, 804.270 473, 805.050 473 C 805.756 473, 806.049 472.716, 805.702 472.369 C 805.355 472.021, 805.536 470.867, 806.105 469.804 C 806.674 468.740, 807.299 467.045, 807.493 466.036 C 807.687 465.028, 808.559 463.369, 809.431 462.351 C 810.303 461.333, 811.113 460.050, 811.232 459.500 C 811.351 458.950, 812.134 457.698, 812.974 456.718 C 813.813 455.737, 814.500 454.575, 814.500 454.135 C 814.500 453.694, 815.850 452.098, 817.500 450.586 C 819.150 449.075, 819.825 448.166, 819 448.566 C 818.175 448.967, 818.503 448.319, 819.730 447.127 C 820.956 445.935, 822.935 443.956, 824.127 442.730 C 825.319 441.503, 825.966 441.175, 825.565 442 C 825.163 442.825, 826.729 441.475, 829.044 439 C 831.359 436.525, 832.634 435.374, 831.877 436.441 C 830.740 438.043, 831.068 437.967, 833.750 436.003 C 835.538 434.695, 837 433.259, 837 432.812 C 837 432.365, 837.337 432.110, 837.750 432.245 C 838.163 432.380, 840.864 431.033, 843.754 429.252 C 846.644 427.471, 849.255 426.047, 849.557 426.087 C 849.859 426.128, 851.094 425.526, 852.303 424.749 C 853.511 423.972, 856.862 422.497, 859.750 421.471 C 862.638 420.445, 865 419.206, 865 418.719 C 865 418.232, 865.563 418.022, 866.250 418.252 C 866.938 418.482, 869.741 417.882, 872.481 416.919 C 875.220 415.955, 877.807 415.381, 878.231 415.642 C 878.654 415.904, 879 415.604, 879 414.976 C 879 414.347, 879.563 414.023, 880.250 414.255 C 880.938 414.488, 882.982 414.061, 884.794 413.307 C 886.606 412.553, 888.518 412.202, 889.044 412.527 C 889.570 412.852, 890.460 412.834, 891.022 412.486 C 891.584 412.139, 894.745 411.708, 898.046 411.529 C 901.348 411.351, 904.601 410.777, 905.275 410.255 C 906.997 408.922, 948 408.860, 948 410.191 C 948 410.832, 949.421 410.977, 951.750 410.574 C 954.089 410.170, 954.998 410.264, 954.165 410.824 C 953.331 411.386, 954.736 411.540, 957.915 411.234 C 961.355 410.904, 963 411.116, 963 411.892 C 963 412.617, 963.924 412.806, 965.513 412.407 C 966.931 412.052, 968.655 412.299, 969.469 412.974 C 970.263 413.633, 971.382 413.882, 971.956 413.527 C 972.530 413.172, 973.003 413.246, 973.006 413.691 C 973.009 414.136, 975.130 414.561, 977.718 414.635 C 980.306 414.710, 982.569 415.207, 982.747 415.740 C 982.924 416.273, 984.292 416.514, 985.785 416.276 C 987.912 415.937, 988.175 416.074, 987 416.906 C 985.728 417.808, 985.804 417.995, 987.500 418.140 C 988.600 418.234, 990.554 418.218, 991.841 418.103 C 993.395 417.966, 993.942 418.285, 993.466 419.055 C 992.975 419.849, 993.374 420.016, 994.734 419.585 C 995.925 419.206, 997.203 419.539, 997.932 420.418 C 998.600 421.223, 999.788 421.635, 1000.573 421.334 C 1001.358 421.032, 1002 421.332, 1002 422 C 1002 422.668, 1002.642 422.968, 1003.427 422.666 C 1004.212 422.365, 1005.409 422.788, 1006.087 423.605 C 1006.765 424.422, 1007.923 424.860, 1008.660 424.577 C 1009.397 424.294, 1010 424.525, 1010 425.090 C 1010 425.656, 1010.450 425.840, 1011 425.500 C 1011.550 425.160, 1012 425.299, 1012 425.808 C 1012 426.565, 1020.791 430.840, 1022.539 430.932 C 1022.814 430.946, 1024.015 431.868, 1025.208 432.979 C 1027.246 434.877, 1028.474 435.399, 1030.250 435.118 C 1030.662 435.053, 1031 435.390, 1031 435.867 C 1031 436.688, 1039.200 442.578, 1039.767 442.164 C 1039.914 442.057, 1041.422 443.550, 1043.118 445.482 C 1044.814 447.413, 1046.676 448.700, 1047.255 448.342 C 1047.835 447.984, 1048.049 448.112, 1047.731 448.626 C 1047.413 449.141, 1050.516 452.876, 1054.627 456.927 C 1058.993 461.229, 1061.886 464.855, 1061.582 465.646 C 1061.297 466.391, 1061.611 467.003, 1062.281 467.006 C 1063.894 467.015, 1067.192 472.881, 1066.350 474.243 C 1065.987 474.829, 1066.148 475.027, 1066.706 474.682 C 1068.043 473.855, 1071.449 481.465, 1070.458 483.068 C 1070.005 483.801, 1070.102 484.055, 1070.695 483.689 C 1073.214 482.132, 1077.199 498.132, 1077.363 510.461 C 1077.496 520.406, 1076.224 528.955, 1074.915 526.919 C 1074.326 526.002, 1074.234 526.705, 1074.657 528.905 C 1075.129 531.357, 1074.988 532.111, 1074.156 531.596 C 1073.364 531.107, 1073 532.003, 1073 534.441 C 1073 536.398, 1072.564 538, 1072.031 538 C 1071.499 538, 1071.350 538.749, 1071.701 539.664 C 1072.128 540.775, 1071.955 541.090, 1071.181 540.612 C 1070.438 540.152, 1070.225 540.424, 1070.589 541.371 C 1070.900 542.182, 1070.298 543.702, 1069.251 544.749 C 1067.380 546.620, 1066.296 548.633, 1066.213 550.388 C 1066.190 550.877, 1065.795 551.552, 1065.335 551.888 C 1063.703 553.084, 1056.556 562.392, 1057.916 561.552 C 1060.164 560.163, 1046.938 573.064, 1040.463 578.577 C 1034.149 583.952, 1019.364 594.022, 1014.750 596.089 C 1013.237 596.767, 1012 597.699, 1012 598.161 C 1012 598.622, 1011.663 598.901, 1011.250 598.779 C 1010.837 598.658, 1006.675 600.410, 1002 602.672 C 990.467 608.254, 983.796 611.216, 982 611.553 C 981.175 611.707, 978.475 612.606, 976 613.550 C 964.672 617.872, 955.248 621.110, 952.500 621.625 C 950.850 621.935, 949.050 622.554, 948.500 623 C 947.950 623.447, 945.357 624.132, 942.738 624.522 C 940.118 624.912, 937.729 625.629, 937.429 626.115 C 937.128 626.602, 935.859 627, 934.608 627 C 933.357 627, 931.996 627.337, 931.584 627.750 C 931.171 628.163, 929.859 628.588, 928.667 628.695 C 925.204 629.006, 910.598 632.513, 909.220 633.364 C 908.530 633.791, 905.664 634.349, 902.852 634.604 C 900.040 634.860, 896.928 635.503, 895.936 636.034 C 894.943 636.566, 892.864 637.007, 891.316 637.016 C 889.767 637.024, 884.450 637.872, 879.500 638.900 C 874.550 639.928, 867.800 641.079, 864.500 641.459 C 861.200 641.839, 856.250 642.781, 853.500 643.552 C 850.750 644.323, 847.600 644.941, 846.500 644.926 C 845.400 644.910, 842.700 645.141, 840.500 645.438 C 838.300 645.735, 830.650 646.633, 823.500 647.434 C 816.350 648.235, 807.800 649.424, 804.500 650.077 C 801.200 650.730, 795.350 651.414, 791.500 651.597 C 787.650 651.781, 782.475 652.403, 780 652.980 C 776.091 653.892, 765.705 655.004, 759.500 655.175 C 758.400 655.205, 756.138 655.630, 754.474 656.119 C 751.480 656.998, 745.196 657.760, 735.500 658.420 C 732.750 658.607, 727.125 659.299, 723 659.959 C 718.875 660.618, 712.731 661.342, 709.346 661.567 C 705.961 661.792, 701.993 662.432, 700.529 662.989 C 699.065 663.546, 693.796 664.237, 688.820 664.526 C 683.844 664.815, 678.970 665.481, 677.990 666.005 C 676.208 666.959, 670.025 667.925, 662.500 668.425 C 660.300 668.572, 657.600 668.969, 656.500 669.307 C 655.400 669.646, 650.805 670.376, 646.288 670.929 C 641.772 671.482, 635.815 672.674, 633.050 673.578 C 630.285 674.483, 627.343 674.962, 626.511 674.643 C 625.680 674.324, 625 674.420, 625 674.856 C 625 675.293, 623.538 675.688, 621.750 675.735 C 619.962 675.781, 615.800 676.324, 612.500 676.942 C 609.200 677.559, 605.600 678.207, 604.500 678.382 C 599.468 679.183, 595.397 680.314, 594.263 681.227 C 593.582 681.775, 592.361 681.969, 591.549 681.657 C 590.737 681.346, 587.469 681.795, 584.286 682.655 C 578.266 684.284, 574.554 685.049, 572 685.190 C 571.175 685.235, 569.992 685.671, 569.371 686.159 C 568.750 686.646, 565.957 687.291, 563.165 687.592 C 560.374 687.893, 555.753 688.994, 552.897 690.038 C 550.041 691.081, 547.351 691.717, 546.918 691.449 C 546.486 691.182, 544.415 691.611, 542.316 692.402 C 540.217 693.193, 536.858 694.114, 534.851 694.447 C 532.844 694.780, 529.837 695.733, 528.170 696.565 C 526.502 697.397, 523.870 698.249, 522.319 698.460 C 517.617 699.097, 500.366 703.965, 495.500 706.027 C 493.304 706.957, 488.636 708.354, 488.268 708.190 C 488.141 708.133, 486.353 708.790, 484.295 709.650 C 482.237 710.510, 479.488 711.407, 478.187 711.643 C 476.885 711.879, 474.833 712.719, 473.626 713.509 C 472.420 714.300, 470.548 715.084, 469.466 715.252 C 468.385 715.420, 467.050 715.829, 466.500 716.161 C 465.950 716.493, 464.033 717.079, 462.240 717.464 C 460.447 717.849, 457.522 718.898, 455.740 719.796 C 453.958 720.694, 451.844 721.531, 451.043 721.656 C 450.241 721.782, 448.666 722.298, 447.543 722.803 C 446.419 723.309, 443.700 724.537, 441.500 725.532 C 439.300 726.527, 436.781 727.476, 435.902 727.641 C 435.023 727.806, 430.973 729.471, 426.902 731.341 C 422.831 733.211, 418.037 735.359, 416.250 736.115 C 414.462 736.870, 413 737.753, 413 738.077 C 413 738.402, 412.438 738.673, 411.750 738.680 C 410.099 738.698, 380.544 753.526, 371 759.125 C 366.875 761.545, 362.375 764.086, 361 764.773 C 359.625 765.460, 357.295 766.804, 355.822 767.761 C 354.348 768.717, 349.848 771.498, 345.822 773.940 C 339.260 777.919, 317.092 793.142, 313.798 795.931 C 313.084 796.535, 310.367 798.615, 307.759 800.553 C 301.966 804.860, 300.664 808.499, 303.960 811.169 C 306.460 813.193, 309 813.582, 309 811.941 C 309 811.359, 309.520 811.203, 310.155 811.595 C 310.841 812.020, 311.039 811.872, 310.643 811.231 C 309.898 810.026, 315.361 805.695, 316.363 806.696 C 316.713 807.047, 317 806.782, 317 806.108 C 317 805.434, 317.520 805.203, 318.155 805.595 C 318.827 806.011, 319.039 805.872, 318.663 805.264 C 318.308 804.689, 319.194 803.448, 320.632 802.506 C 322.419 801.334, 323.022 801.221, 322.536 802.146 C 322.146 802.891, 322.674 802.462, 323.710 801.193 C 325.533 798.961, 328.219 797.129, 332.614 795.120 C 333.776 794.588, 335.001 793.440, 335.336 792.567 C 335.670 791.695, 336.294 791.078, 336.722 791.196 C 338.122 791.583, 343.743 788.112, 344.372 786.474 C 344.710 785.593, 345.439 785.153, 345.993 785.496 C 346.547 785.838, 347 785.641, 347 785.059 C 347 784.477, 347.338 784.112, 347.750 784.248 C 348.974 784.653, 356 780.162, 356 778.975 C 356 778.374, 356.483 778.181, 357.074 778.546 C 357.665 778.911, 359.127 778.360, 360.324 777.321 C 361.521 776.282, 364.525 774.366, 367 773.064 C 369.475 771.761, 372.011 770.301, 372.636 769.820 C 373.262 769.338, 377.762 766.884, 382.636 764.368 C 387.511 761.851, 392.175 759.196, 393 758.467 C 393.825 757.739, 394.853 757.143, 395.285 757.144 C 396.576 757.145, 405.451 752.710, 406.112 751.734 C 406.448 751.236, 406.898 750.897, 407.112 750.979 C 407.736 751.220, 411.074 749.941, 417.500 747 C 420.800 745.489, 428.450 742.142, 434.500 739.562 C 440.550 736.982, 446.400 734.467, 447.500 733.972 C 451.486 732.181, 467.734 726, 468.456 726 C 468.864 726, 470.616 725.373, 472.349 724.607 C 477.455 722.350, 479.447 721.671, 480.355 721.876 C 480.826 721.983, 481.726 721.656, 482.355 721.151 C 482.985 720.645, 485.073 719.894, 486.996 719.482 C 488.919 719.070, 491.844 718.142, 493.496 717.420 C 495.148 716.698, 499.875 715.095, 504 713.858 C 513.607 710.977, 512.385 711.324, 520.533 709.166 C 524.401 708.141, 528.451 706.845, 529.533 706.286 C 530.615 705.728, 532.063 705.472, 532.750 705.718 C 533.438 705.965, 534 705.767, 534 705.278 C 534 704.790, 537.327 703.831, 541.394 703.148 C 545.460 702.464, 551.152 701.041, 554.041 699.985 C 556.931 698.929, 559.631 698.272, 560.041 698.525 C 560.451 698.779, 562.532 698.371, 564.664 697.619 C 566.796 696.866, 571.006 695.919, 574.020 695.513 C 577.034 695.108, 579.950 694.433, 580.500 694.014 C 581.050 693.595, 583.750 692.927, 586.500 692.530 C 589.250 692.132, 594.842 690.973, 598.926 689.954 C 603.011 688.934, 606.678 688.301, 607.074 688.546 C 607.471 688.791, 609.979 688.354, 612.648 687.574 C 617.111 686.270, 626.593 684.567, 636.500 683.290 C 638.700 683.007, 640.997 682.375, 641.604 681.887 C 642.211 681.398, 643.786 681.045, 645.104 681.101 C 648.285 681.238, 669.004 678.182, 676.240 676.509 C 679.397 675.779, 682.885 675.419, 683.990 675.708 C 685.099 675.998, 686 675.743, 686 675.140 C 686 674.521, 687.630 674.098, 689.750 674.165 C 694.239 674.307, 716.700 671.513, 726.469 669.598 C 730.302 668.846, 733.971 668.436, 734.623 668.685 C 735.274 668.935, 739.900 668.433, 744.904 667.570 C 749.907 666.706, 756.176 666, 758.834 666 C 761.492 666, 764.005 665.663, 764.419 665.250 C 764.833 664.837, 766.595 664.400, 768.336 664.278 C 780.231 663.445, 786.703 662.799, 788 662.315 C 788.825 662.007, 791.750 661.647, 794.500 661.517 C 797.250 661.386, 803.100 660.720, 807.500 660.037 C 811.900 659.355, 817.525 658.639, 820 658.447 C 822.475 658.255, 827.200 657.639, 830.500 657.078 C 833.800 656.516, 840.100 655.561, 844.500 654.955 C 848.900 654.349, 854.750 653.411, 857.500 652.870 C 860.250 652.328, 864.075 651.712, 866 651.500 C 874.759 650.536, 890.318 647.904, 891.830 647.130 C 892.748 646.660, 895.895 646.006, 898.822 645.676 C 901.750 645.347, 905.575 644.635, 907.322 644.096 C 909.070 643.556, 914.775 642.155, 920 640.983 C 937.619 637.030, 972.718 626.618, 977.236 624.004 C 978.191 623.452, 979.473 623, 980.085 623 C 980.697 623, 982.616 622.353, 984.349 621.562 C 986.082 620.772, 990.425 618.926, 994 617.461 C 1001.515 614.380, 1016.576 607.015, 1021.867 603.834 C 1035.015 595.927, 1046.900 587.374, 1051.500 582.509 C 1053.150 580.764, 1055.287 579.050, 1056.250 578.699 C 1057.213 578.349, 1058 577.497, 1058 576.806 C 1058 576.114, 1059.721 573.963, 1061.824 572.024 C 1065.901 568.267, 1072.585 560, 1071.545 560 C 1071.202 560, 1071.840 559.015, 1072.961 557.811 C 1074.876 555.756, 1075.399 554.528, 1075.118 552.750 C 1075.053 552.337, 1075.473 552, 1076.051 552 C 1076.629 552, 1077.688 550.538, 1078.403 548.750 C 1079.119 546.962, 1080.083 544.600, 1080.545 543.500 C 1081.007 542.400, 1081.423 541.050, 1081.469 540.500 C 1081.515 539.950, 1081.905 538.938, 1082.335 538.250 C 1082.766 537.563, 1082.815 537, 1082.444 537 C 1082.073 537, 1082.521 535.854, 1083.439 534.453 C 1087.110 528.850, 1087.166 500.704, 1083.530 489 C 1076.164 465.295, 1060.907 444.830, 1039.716 430.232 C 1029.842 423.429, 1011.193 414, 1007.614 414 C 1006.791 414, 1005.877 413.610, 1005.582 413.133 C 1004.631 411.594, 989.018 407.072, 976 404.565 C 972.425 403.876, 968.600 403.029, 967.500 402.683 C 966.400 402.337, 958.300 401.368, 949.500 400.530 C 932.380 398.900, 918.481 398.760, 908 400.112 M 507 433.535 C 500.243 435.468, 494.930 438.390, 490.704 442.497 C 476.648 456.156, 473.909 478.404, 484.288 494.606 C 488.290 500.855, 496.920 508, 500.465 508 C 501.309 508, 502 508.502, 502 509.117 C 502 509.741, 502.882 510.003, 504.001 509.710 C 505.125 509.416, 505.746 509.602, 505.418 510.133 C 505.070 510.695, 505.984 510.828, 507.666 510.459 C 509.266 510.109, 509.996 510.200, 509.342 510.669 C 508.003 511.630, 528.440 511.430, 532.370 510.443 C 533.817 510.080, 535 509.382, 535 508.892 C 535 508.401, 535.605 508, 536.345 508 C 537.085 508, 538.505 507.100, 539.500 506 C 540.495 504.900, 541.627 504, 542.015 504 C 543.350 504, 549.732 497.384, 552.258 493.383 C 555.245 488.651, 558 478.617, 558 472.468 C 558 466.978, 555.840 458.566, 553 452.999 C 548.722 444.615, 537.777 435.870, 529.802 434.465 C 528.318 434.204, 525.925 433.542, 524.486 432.995 C 521.018 431.676, 512.589 431.937, 507 433.535 M 661.196 433.606 C 655.890 435.924, 651.552 440.564, 649.591 446.018 C 648.005 450.428, 647.930 451.679, 649.020 455.572 C 649.710 458.036, 650.670 460.296, 651.153 460.595 C 651.637 460.894, 651.781 461.545, 651.474 462.041 C 651.168 462.538, 656.059 468.244, 662.345 474.722 C 673.052 485.756, 677 491.499, 677 496.041 C 677 498.555, 673.756 503.986, 672.250 503.994 C 671.563 503.997, 671 504.342, 671 504.759 C 671 505.176, 668.585 505.595, 665.632 505.689 C 660.538 505.852, 660.063 505.647, 656.315 501.680 C 654.142 499.381, 652.047 496.648, 651.659 495.607 C 650.678 492.976, 649.773 494.248, 649.443 498.722 C 649.289 500.800, 649.014 503.617, 648.832 504.983 C 648.638 506.432, 649.020 507.525, 649.750 507.608 C 650.438 507.686, 651.477 507.806, 652.059 507.875 C 652.641 507.944, 652.866 508.408, 652.558 508.907 C 652.249 509.405, 652.968 509.560, 654.155 509.249 C 655.513 508.894, 656.074 509.071, 655.668 509.728 C 655.238 510.424, 658.331 510.780, 664.983 510.799 C 675.631 510.830, 679.308 510.307, 678.430 508.886 C 677.933 508.082, 679.342 507.580, 681.250 507.882 C 681.663 507.947, 681.888 507.582, 681.750 507.071 C 681.613 506.559, 682.293 505.547, 683.262 504.821 C 684.231 504.094, 685.212 502.517, 685.442 501.315 C 685.672 500.113, 686.342 498.230, 686.930 497.131 C 688.330 494.515, 688.262 491.315, 686.716 487 C 684.681 481.324, 682.134 478.011, 672.451 468.447 C 663.789 459.893, 658 451.849, 658 448.369 C 658 447.511, 658.887 445.563, 659.970 444.041 C 661.054 442.520, 661.667 441, 661.332 440.665 C 660.116 439.449, 666.608 437.838, 670.853 438.302 C 675.238 438.781, 677.955 440.522, 678.345 443.103 C 678.694 445.408, 680.027 447, 681.609 447 C 682.786 447, 683.037 445.840, 682.800 441.488 C 682.635 438.457, 682.050 435.934, 681.500 435.881 C 680.950 435.829, 678.830 434.934, 676.790 433.893 C 672.448 431.678, 665.886 431.557, 661.196 433.606 M 367 433.747 L 350.500 434.046 350.660 472.273 C 350.747 493.298, 350.860 510.668, 350.910 510.872 C 350.959 511.077, 351.681 510.679, 352.514 509.988 C 353.522 509.152, 355.563 508.942, 358.619 509.361 C 362.742 509.926, 363.128 509.812, 362.406 508.245 C 361.963 507.285, 361.505 498.254, 361.386 488.176 C 361.189 471.436, 361.314 469.908, 362.835 470.503 C 363.751 470.861, 368.550 471.261, 373.500 471.391 C 378.450 471.522, 383.093 471.824, 383.819 472.064 C 384.733 472.366, 385.240 471.257, 385.472 468.445 L 385.807 464.390 378.904 464.445 C 375.107 464.475, 372 464.837, 372 465.250 C 372 465.663, 369.499 466, 366.441 466 L 360.883 466 361.153 452.599 L 361.424 439.199 372.609 439.068 C 381.737 438.962, 384.095 439.238, 385.425 440.568 C 386.696 441.839, 387.367 441.940, 388.468 441.026 C 389.245 440.381, 389.635 439.212, 389.334 438.427 C 389.032 437.642, 389.284 437, 389.893 437 C 391.587 437, 391.209 434.294, 389.418 433.607 C 388.548 433.273, 386.861 433.101, 385.668 433.224 C 384.476 433.347, 376.075 433.583, 367 433.747 M 401.578 435.658 C 401.260 436.486, 401.007 437.914, 401.015 438.832 C 401.027 440.128, 401.219 440.202, 401.877 439.165 C 402.508 438.169, 402.881 438.422, 403.348 440.165 C 403.691 441.449, 403.947 443.400, 403.916 444.500 L 403.859 446.500 402.971 444.500 C 402.436 443.294, 402.166 455.066, 402.292 474.157 C 402.406 491.569, 402.146 505.294, 401.713 504.657 C 401.268 504.003, 401.051 504.780, 401.213 506.445 C 401.498 509.364, 401.556 509.390, 408.181 509.538 L 414.862 509.686 414.209 501.093 C 413.274 488.798, 413.350 451.412, 414.321 445.500 C 414.947 441.690, 414.872 440.857, 414.006 442 C 413.057 443.252, 412.954 443.170, 413.387 441.500 C 415.401 433.724, 415.816 434.359, 408.643 434.250 C 403.723 434.176, 402.016 434.516, 401.578 435.658 M 431.275 442.250 C 431.227 447.979, 431.444 449.583, 431.984 447.500 C 432.536 445.377, 432.752 446.840, 432.725 452.500 C 432.689 459.782, 432.622 460.051, 431.971 455.500 C 431.577 452.750, 431.258 463.925, 431.261 480.332 C 431.265 506.412, 431.461 510.240, 432.823 510.762 C 433.679 511.091, 434.557 510.829, 434.773 510.180 C 435.257 508.730, 438.647 508.620, 439.516 510.025 C 439.927 510.691, 444.942 510.849, 453.825 510.474 C 463.397 510.071, 467.050 510.209, 466 510.934 C 464.097 512.248, 465.128 512.282, 468.458 511.016 C 470.633 510.189, 470.950 509.590, 470.442 507.266 C 469.978 505.139, 470.084 504.846, 470.904 506 C 471.763 507.209, 471.972 506.961, 471.985 504.719 C 472.005 500.967, 470.288 500.549, 462.827 502.493 C 459.347 503.399, 453.162 504.405, 449.083 504.727 C 442.410 505.255, 441.730 505.145, 442.311 503.632 C 442.666 502.707, 442.988 487.367, 443.027 469.542 C 443.078 446.436, 443.422 437.026, 444.226 436.758 C 444.847 436.551, 445.023 435.846, 444.618 435.191 C 444.175 434.475, 441.384 434, 437.613 434 L 431.344 434 431.275 442.250 M 569.962 434.500 C 569.942 434.775, 569.907 451.988, 569.884 472.750 C 569.847 506.359, 570.016 510.535, 571.421 510.823 C 572.290 511.001, 573 510.675, 573 510.098 C 573 509.386, 573.822 509.362, 575.565 510.025 C 578.830 511.266, 578.673 511.294, 579.427 509.330 C 579.779 508.411, 579.549 507.339, 578.915 506.948 C 577.195 505.884, 576.480 477.427, 577.906 466.753 C 578.742 460.489, 578.769 457.438, 578.002 456.003 C 577.275 454.646, 577.263 454, 577.965 454 C 578.534 454, 579 454.435, 579 454.967 C 579 456.479, 594.793 473.737, 623.110 503.169 C 626.195 506.376, 628.458 509, 628.137 509 C 627.817 509, 628.621 509.747, 629.924 510.660 C 632.156 512.223, 632.376 512.208, 633.708 510.410 C 634.880 508.829, 635.081 502.084, 634.876 471.250 L 634.629 434 629.898 434 C 624.893 434, 623.310 435.453, 625.704 437.847 C 626.700 438.843, 626.776 439.565, 625.985 440.518 C 625.230 441.427, 625.115 448.828, 625.605 464.912 C 626.068 480.131, 625.966 488, 625.306 488 C 624.231 488, 611.273 474.668, 588 449.615 C 579.961 440.961, 572.720 434.005, 571.750 434.003 C 570.788 434.001, 569.983 434.225, 569.962 434.500 M 513.185 438.824 C 512.462 439.305, 510.708 439.476, 509.287 439.204 C 507.524 438.867, 506.925 439.070, 507.403 439.844 C 507.846 440.560, 507.561 440.769, 506.629 440.411 C 505.815 440.099, 504.113 440.887, 502.827 442.173 C 501.547 443.453, 500.129 444.376, 499.676 444.225 C 499.222 444.074, 499.114 444.376, 499.435 444.895 C 499.756 445.415, 498.829 446.776, 497.375 447.920 C 495.920 449.064, 495.068 450, 495.480 450 C 495.893 450, 495.504 451.108, 494.617 452.462 C 492.021 456.423, 490.822 468.020, 492.015 477.619 C 494.263 495.713, 503.601 505.124, 519.619 505.439 C 523.679 505.519, 527 505.201, 527 504.733 C 527 504.265, 527.447 504.158, 527.994 504.496 C 528.987 505.110, 535.393 500.839, 537.740 498 C 538.421 497.175, 540.109 494.165, 541.490 491.312 C 543.686 486.773, 544 484.798, 544 475.521 C 544 461.510, 541.552 453.499, 535.386 447.333 C 533.002 444.950, 531.378 442.992, 531.776 442.983 C 532.174 442.974, 531.150 442.118, 529.500 441.082 C 526.156 438.982, 515.225 437.469, 513.185 438.824 M 432.343 470.500 C 432.346 474.900, 432.522 476.576, 432.733 474.224 C 432.945 471.872, 432.942 468.272, 432.727 466.224 C 432.512 464.176, 432.339 466.100, 432.343 470.500 M 1270.625 537.080 C 1269.171 538.224, 1268.206 539.525, 1268.482 539.971 C 1268.757 540.416, 1267.823 541.541, 1266.405 542.471 C 1264.987 543.400, 1264.037 544.370, 1264.294 544.627 C 1264.550 544.884, 1260.765 549.083, 1255.880 553.957 C 1250.996 558.832, 1247 563.285, 1247 563.851 C 1247 564.418, 1246.480 565.203, 1245.845 565.595 C 1245.086 566.065, 1244.941 565.828, 1245.420 564.905 C 1245.954 563.874, 1245.794 563.899, 1244.818 565 C 1244.087 565.825, 1241.364 568.413, 1238.767 570.750 C 1236.170 573.087, 1234.315 575, 1234.645 575 C 1234.975 575, 1234.689 575.670, 1234.009 576.489 C 1233.329 577.308, 1232.405 577.750, 1231.955 577.472 C 1231.505 577.194, 1230.422 577.987, 1229.549 579.233 C 1228.676 580.480, 1227.633 581.505, 1227.231 581.511 C 1226.008 581.530, 1215 590.178, 1215 591.120 C 1215 591.604, 1214.589 591.887, 1214.086 591.750 C 1213.583 591.612, 1211.135 593.188, 1208.645 595.250 C 1206.156 597.313, 1203.755 599, 1203.310 599.001 C 1202.864 599.001, 1200.747 600.562, 1198.604 602.469 C 1196.461 604.377, 1194.408 605.752, 1194.043 605.527 C 1193.678 605.301, 1191.858 606.414, 1190 608 C 1188.142 609.586, 1186.256 610.658, 1185.811 610.383 C 1185.365 610.107, 1185 610.275, 1185 610.754 C 1185 611.234, 1183.425 612.245, 1181.500 613 C 1179.575 613.755, 1178 614.739, 1178 615.187 C 1178 615.634, 1177.370 616, 1176.600 616 C 1175.831 616, 1172.892 617.553, 1170.071 619.452 C 1167.250 621.351, 1165.226 622.443, 1165.575 621.878 C 1165.924 621.314, 1165.262 621.444, 1164.105 622.167 C 1162.947 622.890, 1162 623.849, 1162 624.300 C 1162 624.750, 1161.550 624.840, 1161 624.500 C 1160.450 624.160, 1160 624.359, 1160 624.941 C 1160 625.523, 1159.100 626, 1158 626 C 1156.900 626, 1156 626.477, 1156 627.059 C 1156 627.641, 1155.550 627.840, 1155 627.500 C 1154.450 627.160, 1154 627.359, 1154 627.941 C 1154 628.523, 1153.662 628.893, 1153.250 628.762 C 1152.140 628.410, 1145.903 631.072, 1142.750 633.243 C 1141.237 634.284, 1140 634.866, 1140 634.536 C 1140 634.206, 1137.971 635.068, 1135.492 636.453 C 1133.012 637.837, 1130.738 638.919, 1130.438 638.858 C 1129.447 638.655, 1116.513 644.358, 1115.888 645.274 C 1115.552 645.767, 1114.974 646.088, 1114.604 645.988 C 1113.252 645.620, 1101 650.397, 1101 651.292 C 1101 651.799, 1100.381 651.976, 1099.624 651.686 C 1098.868 651.396, 1097.016 651.798, 1095.510 652.579 C 1094.004 653.361, 1092.358 654, 1091.854 654 C 1091.349 654, 1089.263 654.747, 1087.218 655.660 C 1085.173 656.572, 1083.162 657.416, 1082.750 657.535 C 1082.338 657.653, 1081.662 657.860, 1081.250 657.993 C 1080.838 658.127, 1080.183 658.191, 1079.797 658.134 C 1079.410 658.077, 1077.047 658.908, 1074.547 659.980 C 1072.046 661.052, 1070 661.724, 1070 661.473 C 1070 661.222, 1068.313 661.644, 1066.250 662.412 C 1064.188 663.179, 1060.025 664.546, 1057 665.450 C 1053.975 666.354, 1050.825 667.360, 1050 667.685 C 1049.175 668.011, 1047.825 668.417, 1047 668.587 C 1041.372 669.749, 1033.056 672.318, 1030.698 673.623 C 1029.157 674.476, 1027.245 674.924, 1026.448 674.619 C 1025.652 674.313, 1025 674.402, 1025 674.817 C 1025 675.232, 1024.213 675.629, 1023.250 675.700 C 1022.288 675.770, 1019.700 676.331, 1017.500 676.946 C 1015.300 677.561, 1012.499 678.281, 1011.276 678.547 C 1010.053 678.812, 1007.803 679.530, 1006.276 680.141 C 1004.749 680.752, 1001.706 681.453, 999.514 681.700 C 997.321 681.946, 995.031 682.559, 994.425 683.063 C 993.818 683.566, 991.340 684.227, 988.919 684.531 C 986.497 684.835, 984.085 685.515, 983.558 686.042 C 983.031 686.569, 981.367 687, 979.859 687 C 978.351 687, 976.852 687.430, 976.527 687.956 C 976.202 688.482, 975.354 688.689, 974.643 688.417 C 973.933 688.144, 971.206 688.840, 968.585 689.964 C 965.964 691.087, 963.430 691.766, 962.954 691.471 C 962.478 691.177, 960.438 691.626, 958.422 692.468 C 956.406 693.311, 953.798 694.020, 952.628 694.044 C 951.458 694.068, 948.700 694.780, 946.500 695.626 C 944.300 696.473, 941.600 697.316, 940.500 697.499 C 939.400 697.683, 938.275 697.923, 938 698.032 C 937.725 698.141, 937.050 698.296, 936.500 698.377 C 932.187 699.005, 920.061 702.510, 918.222 703.659 C 916.969 704.442, 915.540 704.833, 915.046 704.528 C 914.272 704.050, 907.763 705.780, 903 707.729 C 902.175 708.067, 900.600 708.463, 899.500 708.609 C 895.964 709.078, 886.117 712.058, 883.338 713.500 C 881.856 714.269, 880.274 714.669, 879.822 714.390 C 879.370 714.110, 879 714.331, 879 714.879 C 879 715.427, 878.212 715.864, 877.250 715.850 C 875.210 715.820, 866.833 718.203, 862.500 720.047 C 860.850 720.749, 859.191 721.260, 858.813 721.183 C 858.059 721.028, 845.212 725.746, 843.541 726.791 C 842.969 727.149, 841.600 727.567, 840.500 727.720 C 838.274 728.030, 832.005 730.404, 827.669 732.580 C 826.112 733.361, 824.400 734, 823.864 734 C 823.328 734, 820.777 734.984, 818.195 736.187 C 815.613 737.390, 813.034 738.461, 812.465 738.567 C 811.896 738.673, 808.521 740.095, 804.965 741.726 C 801.409 743.358, 795.688 745.966, 792.250 747.522 C 788.813 749.078, 786 750.749, 786 751.235 C 786 751.720, 785.586 751.862, 785.081 751.550 C 783.638 750.658, 781 753.890, 781 756.548 C 781 757.978, 781.965 759.586, 783.377 760.511 C 785.372 761.819, 786.216 761.866, 788.627 760.805 C 790.207 760.110, 791.770 759.164, 792.100 758.704 C 792.430 758.244, 793.330 757.741, 794.100 757.587 C 794.870 757.433, 796.625 756.828, 798 756.242 C 801.443 754.775, 811.664 750.249, 816.500 748.051 C 818.700 747.050, 824.775 744.570, 830 742.539 C 835.225 740.509, 840.512 738.441, 841.748 737.946 C 843.610 737.199, 866.154 729.573, 869.500 728.558 C 870.050 728.391, 870.768 728.310, 871.096 728.377 C 871.424 728.445, 872.324 727.996, 873.096 727.380 C 873.868 726.765, 876.243 725.946, 878.373 725.562 C 880.503 725.178, 882.978 724.477, 883.873 724.005 C 886.003 722.880, 889.125 721.780, 891 721.492 C 892.510 721.260, 903.228 718.211, 912.500 715.375 C 915.250 714.534, 919.975 713.223, 923 712.462 C 926.025 711.700, 931.875 710.125, 936 708.962 C 940.125 707.798, 944.625 706.619, 946 706.342 C 947.375 706.065, 949.175 705.581, 950 705.268 C 952.606 704.278, 953.388 704.067, 958.228 703.056 C 960.829 702.513, 965.554 701.290, 968.728 700.338 C 971.903 699.386, 974.822 698.691, 975.215 698.792 C 975.609 698.894, 977.184 698.483, 978.715 697.879 C 980.247 697.275, 983.975 696.198, 987 695.486 C 990.025 694.774, 996.100 693.202, 1000.500 691.992 C 1004.900 690.782, 1010.506 689.384, 1012.959 688.887 C 1015.411 688.389, 1017.864 687.536, 1018.409 686.991 C 1018.954 686.446, 1020.383 686, 1021.585 686 C 1023.708 686, 1032.455 683.628, 1036.500 681.955 C 1037.600 681.500, 1041.593 680.389, 1045.373 679.487 C 1049.153 678.584, 1053.203 677.482, 1054.373 677.038 C 1055.543 676.594, 1059.875 675.223, 1064 673.992 C 1068.125 672.760, 1074.650 670.652, 1078.500 669.306 C 1082.350 667.961, 1087.075 666.395, 1089 665.826 C 1090.925 665.257, 1092.950 664.441, 1093.500 664.012 C 1094.050 663.582, 1096.075 662.902, 1098 662.500 C 1099.925 662.098, 1101.950 661.430, 1102.500 661.015 C 1103.050 660.600, 1105.300 659.698, 1107.500 659.010 C 1109.700 658.321, 1111.928 657.363, 1112.450 656.879 C 1112.973 656.396, 1114.098 655.985, 1114.950 655.966 C 1115.803 655.947, 1118.300 655.063, 1120.500 654 C 1122.700 652.937, 1124.828 652.053, 1125.228 652.034 C 1125.629 652.015, 1129.229 650.494, 1133.228 648.653 C 1137.228 646.812, 1143.425 644, 1147 642.404 C 1154.708 638.964, 1172.287 629.974, 1173 629.108 C 1173.275 628.773, 1174.082 628.381, 1174.793 628.236 C 1176.319 627.924, 1184.228 622.895, 1185.112 621.674 C 1185.448 621.209, 1186.011 620.868, 1186.362 620.915 C 1188.100 621.147, 1188.790 620.844, 1190.811 618.961 C 1192.015 617.840, 1193 617.243, 1193 617.635 C 1193 618.028, 1194.125 617.292, 1195.500 616 C 1196.875 614.708, 1198 614.016, 1198 614.462 C 1198 614.908, 1199.179 614.093, 1200.621 612.652 C 1202.062 611.211, 1203.640 610.278, 1204.128 610.579 C 1204.615 610.880, 1205.283 610.426, 1205.612 609.569 C 1205.941 608.712, 1206.552 608.223, 1206.971 608.482 C 1207.390 608.741, 1208.538 608.063, 1209.521 606.976 C 1210.505 605.889, 1211.893 605, 1212.605 605 C 1213.318 605, 1214.359 604.212, 1214.920 603.250 C 1215.481 602.288, 1215.953 601.898, 1215.970 602.385 C 1215.986 602.872, 1216.933 602.084, 1218.073 600.635 C 1219.212 599.186, 1220.722 598, 1221.427 598 C 1222.131 598, 1224.011 596.773, 1225.604 595.273 C 1227.197 593.773, 1228.843 592.536, 1229.263 592.523 C 1229.683 592.510, 1231.178 591.150, 1232.585 589.500 C 1233.993 587.850, 1234.847 587.175, 1234.483 588 C 1234.120 588.825, 1235.404 587.855, 1237.338 585.844 C 1239.272 583.833, 1241.061 582.394, 1241.313 582.647 C 1241.566 582.899, 1242.694 581.933, 1243.820 580.501 C 1244.947 579.069, 1246.132 577.930, 1246.454 577.970 C 1247.646 578.117, 1249.771 575.466, 1249.235 574.500 C 1248.929 573.950, 1249.064 573.850, 1249.534 574.278 C 1250.566 575.217, 1263.127 563.015, 1262.378 561.802 C 1262.088 561.334, 1262.427 561.074, 1263.130 561.225 C 1263.834 561.376, 1264.430 561.020, 1264.455 560.434 C 1264.480 559.848, 1265.803 558.160, 1267.396 556.684 C 1268.989 555.208, 1269.946 554, 1269.524 554 C 1269.101 554, 1269.311 553.330, 1269.991 552.511 C 1270.671 551.692, 1271.575 551.237, 1272 551.500 C 1272.425 551.763, 1273.387 551.222, 1274.137 550.297 C 1275.074 549.141, 1275.110 548.851, 1274.250 549.367 C 1273.563 549.780, 1273 549.731, 1273 549.259 C 1273 547.764, 1275.193 546.137, 1276.521 546.646 C 1277.223 546.916, 1278.092 546.661, 1278.451 546.080 C 1278.858 545.421, 1278.476 545.264, 1277.436 545.663 C 1275.997 546.215, 1275.928 546.003, 1276.934 544.124 C 1277.575 542.925, 1278.528 542.208, 1279.050 542.531 C 1280.579 543.476, 1280.141 539.647, 1278.443 537.223 C 1276.497 534.444, 1274.033 534.399, 1270.625 537.080 M 599.500 549.648 C 590.150 550.402, 578.900 551.181, 574.500 551.380 C 570.100 551.579, 566.275 551.868, 566 552.024 C 565.725 552.179, 563.475 552.418, 561 552.555 C 549.097 553.215, 527.282 555.067, 525.500 555.570 C 523.324 556.184, 509.732 558.057, 506.500 558.189 C 505.400 558.233, 502.700 558.630, 500.500 559.070 C 498.300 559.510, 491.797 560.382, 486.049 561.007 C 480.301 561.633, 474.838 562.552, 473.908 563.049 C 472.979 563.547, 469.132 564.212, 465.359 564.527 C 461.587 564.843, 457.150 565.516, 455.500 566.024 C 453.044 566.779, 447.297 567.774, 441.500 568.447 C 440.950 568.511, 437.800 569.129, 434.500 569.821 C 431.200 570.513, 425.125 571.775, 421 572.625 C 416.875 573.476, 411.700 574.617, 409.500 575.160 C 407.300 575.704, 402.350 576.750, 398.500 577.486 C 394.650 578.221, 389.535 579.504, 387.132 580.335 C 384.730 581.167, 382.255 581.656, 381.632 581.422 C 379.915 580.776, 374 584.752, 374 586.551 C 374 587.420, 374.475 589.018, 375.055 590.102 C 375.935 591.747, 376.890 592, 380.838 591.633 C 383.439 591.391, 387.577 590.630, 390.034 589.940 C 392.490 589.251, 395.175 588.610, 396 588.515 C 397.633 588.328, 404.880 586.710, 412 584.944 C 414.475 584.330, 417.850 583.608, 419.500 583.340 C 421.150 583.071, 423.175 582.606, 424 582.306 C 424.825 582.006, 426.625 581.647, 428 581.509 C 432.282 581.078, 448.346 577.964, 451.568 576.940 C 453.256 576.404, 457.526 575.708, 461.058 575.393 C 464.589 575.079, 467.837 574.601, 468.275 574.330 C 469.100 573.820, 479.240 572.088, 484.500 571.558 C 486.150 571.392, 490.875 570.734, 495 570.095 C 499.125 569.457, 504.939 568.727, 507.919 568.473 C 510.900 568.219, 516.648 567.327, 520.692 566.492 C 524.736 565.657, 529.160 565.253, 530.523 565.595 C 532.034 565.974, 533 565.788, 533 565.117 C 533 564.462, 534.921 564.045, 537.750 564.086 C 543.227 564.165, 570.524 562.201, 593 560.110 C 598.225 559.624, 604.075 559.178, 606 559.120 C 607.925 559.062, 615.800 558.610, 623.500 558.116 C 631.200 557.621, 640.057 557.168, 643.183 557.109 C 647.980 557.017, 648.967 556.681, 649.516 554.951 C 649.898 553.745, 649.505 551.894, 648.560 550.451 C 646.965 548.016, 646.853 548.001, 631.727 548.139 C 623.352 548.216, 608.850 548.895, 599.500 549.648 M 645 608.625 C 635.904 609.511, 610.231 611.130, 599 611.525 C 592.125 611.766, 584.250 612.425, 581.500 612.989 C 576.899 613.932, 563.938 615.134, 558.014 615.168 C 556.647 615.176, 554.847 615.545, 554.014 615.989 C 553.181 616.433, 547.775 617.086, 542 617.441 C 536.225 617.795, 530.733 618.315, 529.795 618.596 C 526.415 619.608, 517.402 621.132, 512.652 621.495 C 509.985 621.699, 505.710 622.327, 503.152 622.891 C 500.593 623.454, 495.575 624.357, 492 624.897 C 488.425 625.437, 483.025 626.399, 480 627.035 C 476.975 627.671, 473.375 628.336, 472 628.513 C 464.666 629.454, 451.685 632.098, 450.018 632.990 C 448.966 633.553, 445.743 634.239, 442.855 634.514 C 439.967 634.789, 436.231 635.443, 434.552 635.968 C 432.873 636.492, 426.100 638.103, 419.500 639.546 C 412.900 640.989, 406.375 642.641, 405 643.217 C 403.625 643.793, 400.975 644.447, 399.112 644.671 C 397.248 644.895, 394.998 645.458, 394.112 645.923 C 393.225 646.387, 390.497 647.100, 388.048 647.506 C 385.600 647.912, 381.599 649.100, 379.157 650.147 C 376.715 651.194, 374.498 651.832, 374.231 651.565 C 373.964 651.298, 372.173 651.736, 370.251 652.540 C 368.329 653.343, 365.798 654.003, 364.628 654.006 C 363.458 654.010, 361.203 654.689, 359.619 655.515 C 358.034 656.342, 355.334 657.263, 353.619 657.562 C 350.619 658.086, 344.375 659.947, 337 662.515 C 335.075 663.186, 330.800 664.552, 327.500 665.550 C 324.200 666.549, 320.868 667.846, 320.096 668.433 C 319.324 669.020, 318.533 669.376, 318.339 669.224 C 317.698 668.725, 306.544 672.256, 304.466 673.616 C 303.348 674.348, 301.548 675.108, 300.466 675.306 C 296.446 676.040, 290.079 678.078, 287.333 679.510 C 285.775 680.323, 283.995 680.990, 283.377 680.994 C 282.760 680.997, 280.060 681.929, 277.377 683.065 C 270.709 685.887, 269.392 686.406, 262.500 688.926 C 256.288 691.198, 253.312 692.427, 246.500 695.535 C 244.300 696.539, 242.162 697.279, 241.750 697.180 C 241.338 697.081, 241 697.450, 241 698 C 241 698.550, 240.662 698.908, 240.250 698.795 C 239.251 698.522, 232.132 700.922, 229 702.588 C 227.625 703.319, 224.250 704.878, 221.500 706.051 C 206.078 712.633, 188.231 721.090, 165.500 732.588 C 142.070 744.440, 129.672 750.982, 124 754.485 C 122.075 755.673, 119.747 756.924, 118.826 757.263 C 115.439 758.510, 70.999 785.640, 54.107 796.773 C 31.784 811.485, 5.734 829.874, 4.689 831.658 C 4.242 832.419, 3.477 832.795, 2.989 832.493 C 1.963 831.859, 0.391 834.790, 0.571 837 C 1.072 843.155, 4.799 842.704, 14.638 835.298 C 18.565 832.343, 22.369 830.055, 23.093 830.213 C 23.817 830.371, 24.430 829.863, 24.455 829.083 C 24.480 828.304, 25.125 827.458, 25.889 827.204 C 26.850 826.883, 27.022 827.166, 26.447 828.120 C 25.742 829.291, 25.872 829.292, 27.308 828.128 C 29.290 826.520, 29.544 825.601, 27.750 826.528 C 27.063 826.883, 27.612 826.270, 28.972 825.165 C 30.332 824.060, 31.794 823.373, 32.222 823.637 C 32.650 823.902, 33 823.693, 33 823.174 C 33 822.655, 34.180 821.457, 35.623 820.511 C 37.431 819.326, 38.038 819.213, 37.577 820.146 C 37.209 820.891, 37.658 820.487, 38.576 819.250 C 39.493 818.013, 40.864 817, 41.622 817 C 42.380 817, 43 816.536, 43 815.969 C 43 815.401, 43.788 814.639, 44.750 814.275 C 45.712 813.910, 47.099 813.020, 47.831 812.297 C 48.562 811.573, 49.552 811.223, 50.030 811.519 C 50.509 811.814, 51.360 811.196, 51.922 810.146 C 52.484 809.095, 53.655 807.963, 54.524 807.629 C 55.585 807.222, 55.881 807.430, 55.425 808.261 C 55.052 808.943, 55.956 808.253, 57.434 806.728 C 58.912 805.204, 60.513 804.199, 60.992 804.495 C 61.471 804.791, 62.578 804.013, 63.451 802.767 C 64.324 801.520, 65.367 800.616, 65.769 800.758 C 66.171 800.900, 67.287 800.342, 68.250 799.518 C 69.213 798.694, 70.014 798.353, 70.030 798.760 C 70.047 799.167, 70.519 798.712, 71.080 797.750 C 71.641 796.788, 72.892 796, 73.860 796 C 74.828 796, 77.137 794.538, 78.992 792.750 C 80.846 790.962, 82.023 790.175, 81.607 791 C 81.151 791.905, 81.416 791.812, 82.275 790.766 C 83.057 789.812, 83.991 789.324, 84.349 789.682 C 84.707 790.040, 85 789.782, 85 789.108 C 85 788.434, 85.453 788.162, 86.007 788.504 C 86.561 788.847, 87.283 788.426, 87.612 787.569 C 87.941 786.712, 88.612 786.260, 89.105 786.565 C 89.597 786.869, 90 786.615, 90 786 C 90 785.385, 90.368 785.109, 90.818 785.387 C 91.268 785.666, 92.739 784.870, 94.088 783.620 C 95.436 782.369, 97.051 781.517, 97.676 781.725 C 98.302 781.934, 99.458 781.184, 100.246 780.059 C 101.035 778.933, 101.977 778.310, 102.340 778.673 C 102.703 779.036, 103 778.782, 103 778.108 C 103 777.434, 103.382 777.118, 103.849 777.406 C 104.315 777.695, 105.665 777.029, 106.849 775.926 C 108.032 774.824, 109.014 774.277, 109.032 774.711 C 109.049 775.145, 109.724 774.626, 110.532 773.559 C 111.339 772.491, 112 771.972, 112 772.404 C 112 772.836, 114.063 771.981, 116.585 770.503 C 119.107 769.025, 123.382 766.668, 126.085 765.266 C 128.788 763.864, 131 762.303, 131 761.799 C 131 761.295, 131.338 761.089, 131.750 761.343 C 132.162 761.597, 134.300 760.751, 136.500 759.463 C 138.700 758.176, 142.412 756.155, 144.750 754.972 C 147.088 753.789, 149 752.385, 149 751.852 C 149 751.318, 149.450 751.160, 150 751.500 C 150.550 751.840, 151 751.641, 151 751.059 C 151 750.477, 151.345 750.113, 151.767 750.250 C 152.545 750.504, 196.080 729.175, 197 728.090 C 197.275 727.766, 198.175 727.361, 199 727.191 C 200.815 726.817, 209.299 722.867, 210 722.069 C 210.275 721.756, 211.128 721.366, 211.895 721.202 C 212.663 721.037, 216.131 719.575, 219.604 717.952 C 223.076 716.328, 226.148 715, 226.431 715 C 226.714 715, 229.320 713.902, 232.223 712.561 C 235.125 711.219, 240.425 708.941, 244 707.498 C 247.575 706.056, 251.850 704.280, 253.500 703.552 C 255.150 702.825, 260.775 700.586, 266 698.578 C 271.225 696.570, 276.400 694.537, 277.500 694.061 C 278.600 693.585, 282.425 692.186, 286 690.952 C 289.575 689.717, 293.850 688.126, 295.500 687.416 C 297.150 686.705, 304.575 684.054, 312 681.524 C 331.242 674.967, 335.555 673.552, 344 671.020 C 348.125 669.783, 353.315 668.147, 355.533 667.385 C 357.752 666.623, 360.159 666, 360.882 666 C 361.606 666, 363.616 665.359, 365.349 664.575 C 367.082 663.791, 370.525 662.687, 373 662.122 C 375.475 661.558, 379.975 660.376, 383 659.496 C 386.025 658.617, 391.875 656.991, 396 655.883 C 400.125 654.775, 405.075 653.421, 407 652.874 C 408.925 652.327, 411.400 651.711, 412.500 651.504 C 413.600 651.298, 418.550 650.178, 423.500 649.016 C 436.959 645.858, 451.886 642.670, 465 640.155 C 468.025 639.575, 473.200 638.582, 476.500 637.948 C 492.379 634.899, 498.259 633.880, 507.500 632.573 C 513 631.795, 521.047 630.458, 525.382 629.602 C 529.718 628.746, 533.609 628.258, 534.029 628.518 C 534.449 628.778, 538.552 628.360, 543.147 627.589 C 547.741 626.819, 555.737 625.881, 560.917 625.506 C 566.096 625.131, 571.496 624.382, 572.916 623.842 C 574.337 623.302, 579.212 622.832, 583.749 622.799 C 588.287 622.765, 592 622.328, 592 621.826 C 592 621.325, 595.263 621.022, 599.250 621.153 C 603.237 621.284, 615.275 620.810, 626 620.099 C 636.725 619.388, 651.740 618.636, 659.367 618.429 C 667.783 618.200, 673.777 617.600, 674.617 616.903 C 676.382 615.438, 676.403 611.579, 674.653 610.127 C 673.324 609.024, 651.990 607.943, 645 608.625" stroke="none" fill="#fbfbfb" fill-rule="evenodd"/></svg>