<svg xmlns="http://www.w3.org/2000/svg" width="1080" height="373" viewBox="0 0 1080 373" version="1.1"><path d="M 755.928 1.470 C 712.334 8.572, 682.766 28.503, 671.840 58.149 C 669.830 63.603, 669.500 66.343, 669.500 77.552 L 669.500 90.604 673.294 98.280 C 679.850 111.546, 692.010 121.648, 707.422 126.635 C 732.483 134.745, 778.654 127.381, 801.904 111.567 C 815.228 102.505, 822.204 91.047, 814.915 90.199 C 812.840 89.958, 811.386 91.003, 807.556 95.486 C 798.392 106.212, 784.826 113.238, 763.378 118.365 C 729.851 126.379, 705.419 122.449, 689.351 106.457 C 680.396 97.544, 676.284 86.336, 677.301 73.609 C 679.743 43.034, 707.567 19.773, 752.476 10.762 C 761.619 8.927, 766.656 8.564, 782 8.636 C 844.599 8.927, 890.700 33.731, 904.601 74.601 C 908.122 84.953, 908.978 99.568, 906.615 109.006 C 898.491 141.465, 866.880 166.847, 811.875 185.079 C 775.247 197.220, 734.141 205.195, 668 212.994 C 553.498 226.494, 499.582 235.741, 442.500 251.670 C 371.433 271.501, 312.608 299.075, 264.250 335.225 C 258.382 339.612, 255 342.820, 255 343.999 C 255 345.882, 257.466 349, 258.956 349 C 259.403 349, 265.003 345.160, 271.400 340.468 C 324.967 301.170, 388.258 273.417, 470.528 253.149 C 515.999 241.946, 579.557 231.736, 664.500 221.990 C 732.050 214.238, 772.774 206.476, 811.260 194.015 C 838.104 185.323, 859.457 175.213, 876.135 163.299 C 884.700 157.180, 897.156 145.049, 902.626 137.500 C 908.229 129.766, 913.676 117.356, 915.559 108.034 C 920.184 85.131, 911.785 59.481, 893.265 39.954 C 875.207 20.913, 850.415 8.846, 817 2.835 C 802.017 0.140, 768.669 -0.606, 755.928 1.470 M 1067.528 121.966 C 1052.310 140.566, 1025.161 163.270, 1000.251 178.228 C 956.721 204.365, 916.476 219.216, 822 244.001 C 738.552 265.893, 700.568 278.261, 669 293.818 C 660.756 297.881, 659.458 298.865, 659.183 301.257 C 658.634 306.030, 662.196 306.327, 670.995 302.241 C 684.479 295.981, 703.920 288.103, 719.633 282.532 C 745.451 273.378, 758.162 269.732, 836.500 249.013 C 886.148 235.882, 908.720 228.895, 939 217.288 C 993.839 196.266, 1044.094 163.025, 1072.517 128.974 C 1078.776 121.475, 1080.155 118.623, 1078.666 116.250 C 1076.747 113.190, 1073.232 114.994, 1067.528 121.966 M 530 177.697 C 348.463 186.415, 164.465 249.982, 17.204 354.856 C 1.797 365.829, 0.924 366.627, 1.204 369.481 C 1.738 374.923, 4.880 374.021, 17.795 364.721 C 133.030 281.730, 274.451 222.897, 417.241 198.547 C 462.045 190.906, 523.471 185.003, 558.193 185.001 C 566.984 185, 568.027 184.799, 569.396 182.845 C 570.482 181.295, 570.628 180.174, 569.917 178.845 C 569.013 177.155, 567.566 177.016, 552.715 177.193 C 543.797 177.299, 533.575 177.526, 530 177.697" stroke="none" fill="#137343" fill-rule="evenodd"/><path d="M 310.500 28.747 L 295.500 29.049 295.500 61.567 L 295.500 94.085 300.891 93.792 L 306.281 93.500 306.079 76.645 L 305.876 59.789 312.188 60.447 C 315.660 60.809, 319.706 61.335, 321.180 61.617 C 323.206 62.003, 324.138 61.611, 324.994 60.012 C 325.617 58.848, 325.979 57.131, 325.799 56.198 C 325.512 54.710, 324.266 54.543, 315.736 54.849 L 306 55.198 306 44.449 L 306 33.700 317.002 34.281 C 327.312 34.825, 328.072 34.735, 329.079 32.852 C 330.463 30.265, 329.560 27.938, 327.281 28.222 C 326.302 28.344, 318.750 28.580, 310.500 28.747 M 427 28.877 C 417.325 32.055, 409.457 39.518, 405.938 48.853 C 404.190 53.491, 403.879 56.108, 404.198 63.500 C 404.525 71.112, 405.033 73.321, 407.489 77.819 C 419.004 98.909, 451.571 100.888, 464.719 81.296 C 471.370 71.386, 472.502 58.146, 467.612 47.463 C 464.249 40.118, 459.700 35.470, 452.319 31.836 C 446.887 29.162, 444.459 28.584, 437.655 28.344 C 433.170 28.186, 428.375 28.426, 427 28.877 M 555.848 30.018 C 550.716 32.729, 548 37.539, 548 43.918 C 548 50.962, 549.778 54.004, 560.075 64.571 C 564.936 69.560, 569.383 74.877, 569.957 76.386 C 572.817 83.908, 569.311 90, 562.122 90 C 557.673 90, 552.491 86.423, 550.908 82.257 C 549.446 78.412, 547.530 80.153, 547.205 85.622 C 546.916 90.484, 546.988 90.624, 550.705 92.414 C 552.792 93.419, 557.200 94.445, 560.500 94.694 C 574.945 95.782, 584.140 83.610, 578.284 71.151 C 577.340 69.143, 572.452 63.225, 567.422 58 C 562.392 52.775, 557.764 47.517, 557.138 46.316 C 555.226 42.645, 555.772 38.137, 558.455 35.455 C 562.406 31.503, 568.199 32.459, 572.706 37.805 C 575.353 40.946, 575.757 40.677, 576.177 35.492 C 576.475 31.806, 576.234 31.371, 573 29.753 C 568.373 27.440, 560.498 27.561, 555.848 30.018 M 339.500 61.500 L 339.500 94 344.500 94 L 349.500 94 349.500 61.500 L 349.500 29 344.500 29 L 339.500 29 339.500 61.500 M 364.500 61.500 L 364.500 94 380.705 94 L 396.909 94 397.575 90.453 C 397.941 88.503, 397.997 86.663, 397.699 86.366 C 397.402 86.069, 394.760 86.283, 391.829 86.842 C 388.898 87.401, 383.643 88.143, 380.150 88.490 L 373.801 89.122 374.150 59.061 L 374.500 28.999 369.500 29 L 364.500 29 364.500 61.500 M 480.500 61.500 L 480.500 94 484.521 94 L 488.543 94 488.171 73.750 C 487.966 62.612, 487.957 52.225, 488.150 50.666 C 488.480 47.997, 489.279 48.665, 501.900 62.166 C 524.181 86, 533.302 95.100, 534.089 94.280 C 534.501 93.851, 534.987 78.987, 535.169 61.250 L 535.500 28.999 531.500 28.999 L 527.500 28.998 527.817 52.534 L 528.134 76.069 519.741 67.285 C 515.124 62.453, 505.120 51.862, 497.509 43.750 C 489.897 35.638, 482.956 29, 482.085 29 C 480.671 29, 480.500 32.506, 480.500 61.500 M 428.637 34.405 C 423.516 36.310, 419.205 40.487, 416.673 46 C 415.040 49.552, 414.622 52.395, 414.688 59.500 C 414.823 74.196, 419.137 82.963, 428.486 87.537 C 433.305 89.895, 434.904 90.196, 440.104 89.724 C 448.004 89.008, 453.126 85.657, 456.500 78.999 C 462.516 67.127, 460.068 48.341, 451.371 39.644 C 449.815 38.088, 447.244 36.143, 445.658 35.323 C 441.471 33.158, 433.191 32.711, 428.637 34.405" stroke="none" fill="#7bdb53" fill-rule="evenodd"/></svg>