<svg xmlns="http://www.w3.org/2000/svg" width="291" height="416" viewBox="0 0 291 416" version="1.1"><path d="" stroke="none" fill="#187444" fill-rule="evenodd"/><path d="M 129 0.682 C 121.658 1.440, 105.392 5.271, 97.119 8.190 C 67.384 18.682, 40.212 40.400, 22.802 67.591 C 14.775 80.126, 6.938 99.994, 3.312 117 C 0.750 129.019, 0.790 160.875, 3.384 173 C 6.342 186.830, 10.853 199.886, 16.090 209.776 C 26.539 229.510, 69.644 299.453, 114.523 369.500 C 126.505 388.200, 138.089 406.313, 140.266 409.750 C 142.497 413.274, 144.938 415.998, 145.862 415.995 C 146.802 415.992, 149.462 412.903, 152.105 408.745 C 154.638 404.760, 171.322 378.550, 189.179 350.500 C 236.746 275.785, 268.638 223.620, 277.353 206.277 C 281.535 197.956, 286.213 183.489, 288.599 171.500 C 291.301 157.928, 291.080 129.961, 288.164 116.312 C 275.156 55.428, 228.038 10.600, 167.500 1.513 C 158.526 0.166, 138.235 -0.272, 129 0.682 M 130.362 83.981 C 102.376 91.318, 83 116.457, 83 145.430 C 83 172.353, 100.837 196.295, 127.500 205.162 C 133.233 207.068, 136.581 207.485, 146 207.462 C 155.897 207.438, 158.584 207.055, 165.278 204.715 C 181.618 199.002, 194.602 187.697, 201.954 172.782 C 211.174 154.076, 211.172 136.277, 201.947 117.039 C 194.271 101.031, 177.543 87.679, 160 83.557 C 151.296 81.512, 139.118 81.686, 130.362 83.981" stroke="none" fill="#147444" fill-rule="evenodd"/></svg>