<svg xmlns="http://www.w3.org/2000/svg" width="3000" height="3000" viewBox="0 0 3000 3000" version="1.1"><path d="M 2144 937.088 C 2112.107 938.538, 2079.897 943.479, 2051 951.354 C 2047.975 952.178, 2043.475 953.366, 2041 953.994 C 2038.525 954.623, 2035.810 955.499, 2034.967 955.941 C 2034.124 956.384, 2031.956 957.070, 2030.150 957.467 C 2028.343 957.864, 2025.658 958.818, 2024.183 959.588 C 2022.707 960.358, 2020.990 960.990, 2020.367 960.994 C 2019.222 961, 1998.415 969.229, 1995.228 970.936 C 1994.277 971.445, 1988.550 974.251, 1982.500 977.171 C 1956.203 989.862, 1932.567 1006.467, 1913.056 1025.956 C 1898.026 1040.969, 1891.702 1048.849, 1883.329 1063 C 1865.365 1093.357, 1857.965 1119.218, 1858.148 1151 C 1858.197 1159.525, 1858.563 1167.850, 1858.961 1169.500 C 1859.360 1171.150, 1859.474 1165.525, 1859.215 1157 C 1857.517 1101.207, 1882.809 1050.175, 1931.762 1010.622 C 1949.831 996.024, 1982.960 977.016, 2007 967.453 C 2041.758 953.628, 2079.650 944.592, 2123 939.790 C 2138.455 938.078, 2204.637 938.094, 2219.500 939.814 C 2260.283 944.532, 2279.086 947.592, 2304 953.567 C 2376.601 970.977, 2435.841 1002.189, 2477.221 1044.831 C 2523.591 1092.616, 2548.213 1155.053, 2543.990 1214.145 C 2539.233 1280.700, 2500.494 1340.284, 2429 1391.009 C 2369.992 1432.876, 2281.725 1469.147, 2172.500 1496.412 C 2085.133 1518.221, 2001.458 1531.875, 1835 1551.486 C 1579.401 1581.597, 1440.372 1603.999, 1307.500 1636.480 C 1172.406 1669.504, 1068.506 1705.532, 957 1758.016 C 885.267 1791.780, 805.967 1839.466, 745.162 1885.402 C 723.369 1901.866, 723.177 1901.988, 719.205 1901.995 C 715.418 1902.001, 711.450 1898.643, 710.427 1894.567 C 709.124 1889.372, 711.663 1886.402, 727.882 1874.149 C 791.272 1826.261, 850.917 1789.507, 926.734 1751.615 C 955.968 1737.004, 977.114 1727.024, 996.149 1718.854 C 1002.706 1716.040, 1007.812 1713.479, 1007.496 1713.163 C 1007.180 1712.846, 1005.476 1713.322, 1003.711 1714.220 C 1001.945 1715.118, 998.700 1716.594, 996.500 1717.500 C 994.300 1718.407, 991.150 1719.763, 989.500 1720.513 C 987.850 1721.264, 984.250 1722.850, 981.500 1724.037 C 967.742 1729.975, 902.144 1762.380, 887.500 1770.473 C 883.100 1772.904, 878.150 1775.572, 876.500 1776.401 C 874.850 1777.230, 871.250 1779.271, 868.500 1780.937 C 865.750 1782.603, 862.579 1784.378, 861.454 1784.881 C 859.618 1785.701, 842.750 1795.576, 839 1798.025 C 838.175 1798.564, 836.600 1799.460, 835.500 1800.017 C 834.400 1800.574, 832.291 1801.811, 830.813 1802.765 C 829.336 1803.719, 823.711 1807.165, 818.313 1810.422 C 812.916 1813.679, 808.350 1816.716, 808.167 1817.172 C 807.983 1817.627, 807.460 1818, 807.004 1818 C 806.158 1818, 796.485 1824.052, 794.292 1825.953 C 793.628 1826.529, 792.822 1827, 792.502 1827 C 791.941 1827, 786.026 1830.956, 785 1832.017 C 784.725 1832.302, 780.675 1835.085, 776 1838.202 C 764.415 1845.926, 754.063 1853.199, 744.362 1860.432 C 739.886 1863.770, 735.231 1867.175, 734.019 1868 C 732.806 1868.825, 730.648 1870.485, 729.223 1871.690 C 727.798 1872.894, 723.376 1876.269, 719.397 1879.190 C 715.417 1882.110, 711.450 1885.694, 710.581 1887.154 C 708.063 1891.382, 708.558 1896.474, 711.844 1900.151 C 714.264 1902.860, 715.376 1903.333, 719.319 1903.333 C 723.344 1903.333, 724.774 1902.691, 730.226 1898.436 C 733.677 1895.742, 736.950 1893.187, 737.500 1892.758 C 738.050 1892.330, 740.075 1890.641, 742 1889.005 C 743.925 1887.370, 745.769 1886.025, 746.097 1886.016 C 746.425 1886.007, 747.621 1885.213, 748.754 1884.250 C 749.887 1883.287, 751.806 1881.825, 753.019 1881 C 754.231 1880.175, 758.957 1876.707, 763.521 1873.292 C 771.750 1867.135, 813.676 1838.964, 825.828 1831.425 C 850.427 1816.166, 855.643 1813.064, 856.750 1813.034 C 857.438 1813.015, 858 1812.550, 858 1812 C 858 1811.450, 858.500 1811, 859.111 1811 C 859.722 1811, 863.885 1808.797, 868.361 1806.104 C 872.838 1803.411, 879.200 1799.750, 882.500 1797.968 C 885.800 1796.186, 891.200 1793.275, 894.500 1791.499 C 897.800 1789.722, 904.100 1786.324, 908.500 1783.947 C 925.039 1775.013, 961.988 1756.846, 979 1749.284 C 980.925 1748.428, 985.200 1746.480, 988.500 1744.956 C 1000.266 1739.519, 1015.776 1732.795, 1036 1724.362 C 1037.925 1723.560, 1040.281 1722.475, 1041.236 1721.952 C 1042.191 1721.428, 1043.454 1721, 1044.041 1721 C 1044.629 1721, 1046.998 1720.159, 1049.305 1719.130 C 1051.612 1718.102, 1057.550 1715.779, 1062.500 1713.968 C 1067.450 1712.156, 1071.928 1710.298, 1072.450 1709.837 C 1072.973 1709.377, 1074.010 1709, 1074.755 1709 C 1075.500 1709, 1077.998 1708.159, 1080.305 1707.130 C 1082.612 1706.102, 1088.550 1703.805, 1093.500 1702.027 C 1098.450 1700.248, 1103.400 1698.433, 1104.500 1697.994 C 1105.600 1697.555, 1109.425 1696.207, 1113 1695 C 1116.575 1693.793, 1120.400 1692.422, 1121.500 1691.955 C 1122.600 1691.487, 1130.700 1688.785, 1139.500 1685.949 C 1148.300 1683.113, 1156.400 1680.431, 1157.500 1679.988 C 1158.600 1679.545, 1164.900 1677.529, 1171.500 1675.508 C 1178.100 1673.487, 1184.625 1671.454, 1186 1670.991 C 1187.375 1670.528, 1191.875 1669.182, 1196 1668 C 1200.125 1666.818, 1204.625 1665.458, 1206 1664.978 C 1207.375 1664.497, 1210.300 1663.598, 1212.500 1662.979 C 1214.700 1662.361, 1218.750 1661.184, 1221.500 1660.365 C 1224.250 1659.545, 1228.865 1658.237, 1231.755 1657.457 C 1234.645 1656.677, 1239.370 1655.399, 1242.255 1654.617 C 1256.060 1650.874, 1273.436 1646.402, 1293.500 1641.428 C 1305.600 1638.428, 1317.075 1635.561, 1319 1635.058 C 1327.441 1632.852, 1345.920 1628.623, 1360.500 1625.562 C 1364.900 1624.638, 1370.300 1623.489, 1372.500 1623.010 C 1387.842 1619.667, 1391.099 1618.979, 1396 1618.049 C 1399.025 1617.475, 1404.650 1616.334, 1408.500 1615.513 C 1412.350 1614.692, 1419.325 1613.307, 1424 1612.435 C 1428.675 1611.563, 1435.650 1610.249, 1439.500 1609.515 C 1452.117 1607.110, 1464.369 1604.848, 1472 1603.514 C 1487.673 1600.775, 1498.310 1598.948, 1507.250 1597.462 C 1512.338 1596.617, 1520.550 1595.250, 1525.500 1594.426 C 1545.519 1591.092, 1564.834 1588.077, 1582.500 1585.528 C 1588 1584.735, 1597.225 1583.377, 1603 1582.511 C 1616.445 1580.495, 1631.469 1578.371, 1646 1576.432 C 1652.325 1575.588, 1662.450 1574.233, 1668.500 1573.421 C 1687.315 1570.896, 1714.069 1567.445, 1737.500 1564.520 C 1744.650 1563.627, 1755.675 1562.249, 1762 1561.457 C 1768.325 1560.665, 1779.575 1559.317, 1787 1558.463 C 1828.065 1553.737, 1826.505 1553.920, 1863.498 1549.481 C 1900.964 1544.985, 1908.383 1544.062, 1935.251 1540.550 C 1941.438 1539.741, 1950.325 1538.614, 1955 1538.045 C 1959.675 1537.475, 1964.551 1536.764, 1965.835 1536.465 C 1967.119 1536.165, 1972.969 1535.268, 1978.835 1534.472 C 1984.701 1533.676, 1994 1532.319, 1999.500 1531.457 C 2005 1530.594, 2012.425 1529.476, 2016 1528.971 C 2019.575 1528.466, 2023.625 1527.773, 2025 1527.431 C 2026.375 1527.089, 2031.550 1526.185, 2036.500 1525.422 C 2041.450 1524.659, 2049.325 1523.377, 2054 1522.572 C 2058.675 1521.768, 2066.550 1520.411, 2071.500 1519.557 C 2076.450 1518.704, 2083.650 1517.377, 2087.500 1516.610 C 2091.350 1515.842, 2098.100 1514.504, 2102.500 1513.635 C 2125.033 1509.189, 2164.126 1500.225, 2181.500 1495.520 C 2184.800 1494.627, 2189.975 1493.277, 2193 1492.520 C 2203.252 1489.957, 2209.362 1488.243, 2225.500 1483.404 C 2228.250 1482.579, 2232.525 1481.424, 2235 1480.837 C 2237.475 1480.250, 2239.950 1479.423, 2240.500 1479 C 2241.050 1478.577, 2243.060 1477.897, 2244.967 1477.488 C 2246.874 1477.080, 2249.124 1476.394, 2249.967 1475.963 C 2250.810 1475.533, 2256.900 1473.484, 2263.500 1471.411 C 2270.100 1469.337, 2275.927 1467.272, 2276.450 1466.821 C 2276.972 1466.369, 2278.097 1465.997, 2278.950 1465.994 C 2279.802 1465.990, 2281.789 1465.315, 2283.364 1464.494 C 2284.940 1463.672, 2286.672 1463, 2287.213 1463 C 2287.755 1463, 2289.616 1462.376, 2291.349 1461.614 C 2293.082 1460.851, 2297.425 1459.207, 2301 1457.958 C 2304.575 1456.710, 2307.927 1455.309, 2308.450 1454.845 C 2308.972 1454.380, 2310.097 1453.997, 2310.950 1453.994 C 2311.802 1453.990, 2313.625 1453.411, 2315 1452.705 C 2316.375 1452, 2319.750 1450.602, 2322.500 1449.600 C 2325.250 1448.598, 2330.200 1446.518, 2333.500 1444.978 C 2336.800 1443.438, 2341.750 1441.186, 2344.500 1439.973 C 2352.163 1436.592, 2374.777 1425.419, 2381.500 1421.692 C 2384.800 1419.862, 2390.650 1416.633, 2394.500 1414.516 C 2398.350 1412.399, 2401.725 1410.372, 2402 1410.011 C 2402.275 1409.650, 2403.175 1409.044, 2404 1408.666 C 2404.825 1408.288, 2406.698 1407.195, 2408.162 1406.239 C 2409.626 1405.283, 2413.001 1403.181, 2415.662 1401.570 C 2418.323 1399.958, 2423.046 1396.808, 2426.158 1394.570 C 2429.269 1392.331, 2432.799 1389.825, 2434.001 1389 C 2435.203 1388.175, 2437.113 1386.713, 2438.246 1385.750 C 2439.379 1384.787, 2440.579 1384, 2440.913 1384 C 2441.247 1384, 2442.641 1382.972, 2444.010 1381.716 C 2445.380 1380.460, 2448.750 1377.723, 2451.500 1375.635 C 2465.666 1364.880, 2489.421 1340.921, 2501.401 1325.307 C 2516.319 1305.861, 2531.278 1278.146, 2536.108 1261 C 2536.651 1259.075, 2537.477 1256.600, 2537.945 1255.500 C 2539.012 1252.994, 2541.434 1242.948, 2543.491 1232.500 C 2547.596 1211.654, 2545.984 1174.446, 2540.026 1152.500 C 2533.202 1127.360, 2526.678 1111.829, 2513.683 1089.781 C 2503.833 1073.070, 2493.007 1058.921, 2479.037 1044.500 C 2465.207 1030.224, 2462.801 1028.225, 2430.500 1004.168 C 2423.769 999.155, 2392.959 982.721, 2379.500 976.965 C 2378.400 976.494, 2375.250 975.169, 2372.500 974.020 C 2369.750 972.870, 2366.719 971.496, 2365.764 970.965 C 2364.809 970.434, 2363.527 970, 2362.915 970 C 2362.303 970, 2360.384 969.366, 2358.651 968.592 C 2355.342 967.113, 2340.324 961.991, 2333.500 960.014 C 2331.300 959.376, 2327.250 958.178, 2324.500 957.350 C 2317.478 955.237, 2300.628 951.105, 2288 948.400 C 2261.459 942.712, 2226.873 938.491, 2195 937.050 C 2172.087 936.013, 2167.545 936.017, 2144 937.088 M 2140.500 957.939 C 2135.550 958.248, 2148.825 958.506, 2170 958.514 C 2191.703 958.522, 2203.701 958.250, 2197.500 957.891 C 2184.349 957.130, 2153.058 957.156, 2140.500 957.939 M 1979.138 1002.041 C 1953.950 1015.771, 1929.535 1035.739, 1913.611 1055.634 C 1876.572 1101.909, 1867.848 1158.409, 1890.775 1203.513 C 1902.286 1226.156, 1925.794 1247.985, 1952.043 1260.405 C 1997.374 1281.854, 2052.787 1283.324, 2126.761 1265.040 C 2187.191 1250.103, 2226.233 1228.368, 2249.383 1196.773 C 2255.654 1188.214, 2257.265 1187, 2262.345 1187 C 2266.776 1187, 2271 1191.580, 2271 1196.383 C 2271 1201.202, 2262.635 1212.534, 2249.083 1226.072 C 2230.057 1245.081, 2205.943 1259.547, 2173.500 1271.416 C 2165.250 1274.434, 2159.143 1276.925, 2159.930 1276.952 C 2161.804 1277.015, 2174.226 1272.925, 2175.450 1271.841 C 2175.972 1271.379, 2177.029 1271, 2177.799 1271 C 2181.120 1271, 2205.485 1259.482, 2217.231 1252.360 C 2238.863 1239.243, 2254.986 1224.550, 2267.706 1206.361 C 2271.192 1201.376, 2272 1199.389, 2272 1195.798 C 2272 1192.167, 2271.451 1190.848, 2268.934 1188.437 C 2266.436 1186.044, 2265.049 1185.518, 2261.448 1185.596 C 2256.493 1185.703, 2253.992 1187.869, 2246.500 1198.549 C 2241.984 1204.985, 2226.095 1220.435, 2219.117 1225.174 C 2206.106 1234.010, 2193.138 1241.066, 2180 1246.457 C 2176.425 1247.924, 2172.082 1249.772, 2170.349 1250.562 C 2168.616 1251.353, 2166.505 1252, 2165.658 1252 C 2164.811 1252, 2163.871 1252.399, 2163.570 1252.887 C 2163.269 1253.374, 2161.330 1254.090, 2159.261 1254.476 C 2157.192 1254.863, 2155.050 1255.523, 2154.500 1255.943 C 2153.950 1256.363, 2151.475 1257.247, 2149 1257.907 C 2146.525 1258.567, 2142.025 1259.781, 2139 1260.605 C 2095.664 1272.416, 2065.290 1276.559, 2028.500 1275.678 C 2007.096 1275.166, 2002.173 1274.578, 1984 1270.368 C 1958.015 1264.349, 1932.254 1250.235, 1913.971 1232.003 C 1890.301 1208.399, 1880 1183.382, 1880 1149.500 C 1880 1116.120, 1890.884 1086.281, 1913.558 1057.500 C 1922.417 1046.256, 1936.116 1032.620, 1945.466 1025.739 C 1946.035 1025.321, 1948.075 1023.638, 1950 1021.999 C 1951.925 1020.360, 1954.287 1018.760, 1955.250 1018.442 C 1956.213 1018.125, 1957 1017.446, 1957 1016.933 C 1957 1016.420, 1957.418 1016, 1957.929 1016 C 1958.440 1016, 1961.703 1014.090, 1965.179 1011.757 C 1972.643 1006.746, 1973.247 1006.383, 1980.525 1002.556 C 1983.603 1000.936, 1986.346 999.249, 1986.620 998.806 C 1987.373 997.587, 1987.064 997.721, 1979.138 1002.041 M 2399.872 1011.308 C 2400.627 1012.239, 2401.624 1013, 2402.087 1013 C 2403.602 1013, 2418.325 1022.251, 2426.358 1028.250 C 2430.680 1031.477, 2434.424 1033.909, 2434.679 1033.654 C 2435.644 1032.690, 2412.987 1017.561, 2399.500 1010.165 C 2398.950 1009.863, 2399.118 1010.377, 2399.872 1011.308 M 1202.500 1014.716 C 1179.296 1015.966, 1155.242 1028.914, 1141.055 1047.793 C 1115.270 1082.103, 1114.424 1130.230, 1139.020 1163.500 C 1142.088 1167.650, 1151.902 1177.390, 1157.186 1181.530 C 1162.397 1185.612, 1176.605 1193, 1179.245 1193 C 1179.990 1193, 1181.046 1193.446, 1181.591 1193.991 C 1182.136 1194.536, 1184.814 1195.458, 1187.541 1196.040 C 1190.269 1196.622, 1194.300 1197.506, 1196.500 1198.005 C 1201.995 1199.252, 1231.585 1199.189, 1236.500 1197.919 C 1238.700 1197.351, 1242.203 1196.456, 1244.284 1195.931 C 1246.365 1195.405, 1248.840 1194.584, 1249.784 1194.107 C 1250.728 1193.629, 1253.750 1192.213, 1256.500 1190.959 C 1271.233 1184.244, 1286.274 1169.680, 1294.738 1153.934 C 1298.738 1146.494, 1303.679 1132.013, 1304.952 1124 C 1306.376 1115.038, 1306.200 1098.006, 1304.589 1089 C 1298.723 1056.184, 1275.985 1030.139, 1244 1019.598 C 1232.338 1015.754, 1216.911 1013.940, 1202.500 1014.716 M 1559.500 1014.584 C 1544.122 1018.306, 1535.095 1024.101, 1528.478 1034.500 C 1523.145 1042.882, 1521.721 1048.742, 1522.199 1060.340 C 1522.984 1079.368, 1527.691 1086.887, 1557.037 1116 C 1576.693 1135.499, 1579.059 1138.213, 1582.463 1145.161 C 1589.185 1158.881, 1588.256 1171.922, 1580.029 1179.355 C 1574.912 1183.978, 1572.918 1184.955, 1566.463 1186.006 C 1550.454 1188.612, 1534.448 1179.161, 1528.845 1163.796 C 1527.099 1159.007, 1526.329 1158, 1524.411 1158 C 1521.765 1158, 1521.731 1158.130, 1519.927 1175.314 C 1518.640 1187.573, 1518.406 1187.050, 1527 1191.118 C 1529.475 1192.290, 1532.694 1193.867, 1534.154 1194.624 C 1535.614 1195.381, 1537.887 1196, 1539.204 1196 C 1540.522 1196, 1542.157 1196.557, 1542.837 1197.237 C 1543.668 1198.068, 1548.844 1198.598, 1558.603 1198.850 C 1571.635 1199.187, 1573.819 1198.994, 1579.815 1196.970 C 1588.539 1194.026, 1591.512 1192.173, 1598.104 1185.573 C 1610.816 1172.848, 1614.136 1151.161, 1605.923 1134.504 C 1604.295 1131.202, 1600.679 1125.454, 1597.888 1121.732 C 1592.764 1114.898, 1589.218 1111.188, 1567.181 1089.603 C 1548.169 1070.981, 1541.678 1059.340, 1543.500 1047.131 C 1544.827 1038.233, 1548.203 1033.239, 1555.395 1029.536 C 1558.393 1027.993, 1561.091 1027.593, 1568.006 1027.668 C 1576.426 1027.759, 1577.046 1027.924, 1582.437 1031.502 C 1587.595 1034.925, 1592.695 1040.841, 1594.309 1045.273 C 1595.034 1047.263, 1597.714 1048.619, 1598.793 1047.541 C 1600.062 1046.272, 1600.896 1024.615, 1599.731 1023.192 C 1598.451 1021.631, 1593.672 1019.529, 1585.500 1016.934 C 1579.649 1015.076, 1563.500 1013.617, 1559.500 1014.584 M 911.584 1015.750 C 911.172 1016.163, 890.509 1016.725, 865.667 1017 L 820.500 1017.500 820.609 1021.500 C 820.669 1023.700, 821.232 1030.416, 821.859 1036.424 C 823.236 1049.603, 823.403 1162.357, 822.065 1175 C 821.570 1179.675, 820.844 1186.325, 820.450 1189.777 L 819.736 1196.054 835.118 1195.777 L 850.500 1195.500 850.219 1192.500 C 850.065 1190.850, 849.538 1185.900, 849.049 1181.500 C 848.559 1177.100, 848.123 1157.638, 848.080 1138.250 L 848 1103 857.634 1103 C 862.933 1103, 868.895 1103.454, 870.884 1104.008 C 874.768 1105.091, 898.751 1106.907, 900.639 1106.261 C 901.606 1105.930, 903.748 1096.197, 904.327 1089.500 C 904.525 1087.209, 905.452 1087.245, 887 1088.821 C 880.125 1089.408, 868.538 1090.155, 861.250 1090.481 L 848 1091.074 848 1061.139 L 848 1031.205 861.250 1030.497 C 874.872 1029.770, 897.510 1030.986, 904.371 1032.813 C 909.311 1034.129, 910.721 1033.545, 911.533 1029.849 C 911.894 1028.208, 912.818 1025.658, 913.588 1024.183 C 916.288 1019.007, 914.759 1012.573, 911.584 1015.750 M 941.572 1018.773 C 941.263 1019.748, 941.545 1022.111, 942.200 1024.023 C 943.916 1029.037, 944.579 1167.637, 942.953 1181.500 C 942.307 1187, 941.717 1192.400, 941.640 1193.500 C 941.506 1195.408, 942.205 1195.513, 956.869 1195.777 L 972.239 1196.053 971.540 1189.277 C 971.156 1185.550, 970.438 1180.700, 969.945 1178.500 C 968.776 1173.280, 968.776 1039.720, 969.945 1034.500 C 970.438 1032.300, 971.155 1027.463, 971.537 1023.750 L 972.233 1017 957.184 1017 C 943.656 1017, 942.078 1017.179, 941.572 1018.773 M 1010.378 1018.456 C 1010.071 1019.257, 1010.377 1022.070, 1011.059 1024.706 C 1012.851 1031.636, 1013.603 1163.962, 1011.935 1178.819 C 1011.276 1184.693, 1010.683 1190.850, 1010.618 1192.500 L 1010.500 1195.500 1055.649 1195.760 L 1100.797 1196.020 1101.932 1192.765 C 1102.556 1190.974, 1103.345 1186.219, 1103.685 1182.198 L 1104.303 1174.886 1101.902 1175.457 C 1086.250 1179.180, 1057.793 1182.850, 1043.750 1182.956 L 1038 1183 1038 1110.500 C 1038 1049.151, 1038.241 1036.602, 1039.570 1028.904 C 1040.433 1023.900, 1040.897 1019.175, 1040.601 1018.403 C 1039.794 1016.300, 1011.187 1016.350, 1010.378 1018.456 M 1334.454 1018.260 C 1334.188 1018.952, 1334.491 1021.765, 1335.127 1024.510 C 1336.829 1031.857, 1337.536 1165.527, 1335.948 1179.822 C 1335.296 1185.695, 1334.703 1191.625, 1334.631 1193 L 1334.500 1195.500 1346 1195.500 C 1356.906 1195.500, 1357.489 1195.397, 1357.283 1193.500 C 1357.164 1192.400, 1356.632 1187.900, 1356.102 1183.500 C 1354.912 1173.638, 1354.191 1068.484, 1355.304 1067.366 C 1355.747 1066.921, 1356.422 1067.058, 1356.804 1067.669 C 1357.419 1068.651, 1367.868 1079.817, 1393.111 1106.465 C 1397.297 1110.884, 1401.797 1115.681, 1403.111 1117.125 C 1404.425 1118.568, 1411.397 1125.993, 1418.604 1133.625 C 1425.811 1141.256, 1432.803 1148.700, 1434.142 1150.167 C 1440.708 1157.363, 1464.489 1182.510, 1472.136 1190.344 C 1478.069 1196.421, 1481.356 1199.078, 1482.636 1198.832 C 1484.430 1198.487, 1484.524 1195.460, 1485.134 1118.487 C 1485.687 1048.716, 1486.140 1033.900, 1488.135 1020.201 C 1488.582 1017.129, 1487.856 1016.938, 1476.750 1017.217 L 1465.500 1017.500 1465.593 1020 C 1465.645 1021.375, 1466.207 1026.870, 1466.843 1032.211 C 1467.585 1038.440, 1468 1061.374, 1468 1096.183 L 1468 1150.446 1464.870 1146.973 C 1460.961 1142.636, 1450.881 1131.827, 1441.583 1122 C 1431.957 1111.828, 1404.859 1083.015, 1403 1080.976 C 1402.175 1080.071, 1398.125 1075.761, 1394 1071.398 C 1386.413 1063.373, 1380.327 1056.914, 1356.128 1031.206 C 1343.353 1017.634, 1342.582 1017, 1338.847 1017 C 1336.626 1017, 1334.728 1017.544, 1334.454 1018.260 M 1193 1029.692 C 1173.520 1036.152, 1160.350 1049.420, 1153.892 1069.090 C 1151.097 1077.605, 1148.787 1096.071, 1149.525 1104 C 1151.736 1127.738, 1153.537 1135.743, 1159.608 1148.815 C 1165.311 1161.093, 1169.295 1166.234, 1179.139 1174.016 C 1185.446 1179.003, 1192.510 1182.403, 1201.167 1184.621 C 1209.504 1186.757, 1230.180 1186.027, 1237.510 1183.338 C 1255.289 1176.816, 1268.680 1161.783, 1274.333 1142 C 1281.630 1116.462, 1277.083 1079.745, 1263.833 1057.200 C 1260.945 1052.286, 1251.157 1041.526, 1246.823 1038.500 C 1241.541 1034.812, 1236.624 1032.457, 1229.500 1030.204 C 1222.486 1027.985, 1199.136 1027.658, 1193 1029.692 M 2473.954 1071.424 C 2478.479 1076.883, 2482.923 1082.508, 2483.828 1083.924 C 2484.733 1085.341, 2486.002 1087.054, 2486.648 1087.732 C 2487.293 1088.410, 2488.025 1089.535, 2488.274 1090.232 C 2488.523 1090.929, 2488.989 1091.262, 2489.310 1090.970 C 2490.089 1090.262, 2474.155 1069.432, 2469.445 1065 C 2467.399 1063.075, 2469.428 1065.966, 2473.954 1071.424 M 2523.500 1201 C 2523.500 1214.475, 2523.798 1223.250, 2524.162 1220.500 C 2525.009 1214.109, 2525.002 1189.186, 2524.151 1182 C 2523.793 1178.975, 2523.500 1187.525, 2523.500 1201 M 1866.007 1198 C 1866.002 1200.784, 1876.707 1220.868, 1882.625 1229.178 C 1889.461 1238.775, 1902.707 1252.519, 1912 1259.656 C 1919.900 1265.723, 1927.792 1271, 1928.967 1271 C 1929.443 1271, 1929.983 1271.367, 1930.167 1271.816 C 1930.545 1272.741, 1949.167 1281.886, 1956 1284.503 C 1969.122 1289.526, 1977.336 1292.030, 1980.365 1291.929 C 1981.539 1291.889, 1978.900 1290.818, 1974.500 1289.548 C 1944.178 1280.795, 1917.062 1265.094, 1897.336 1244.870 C 1886.422 1233.680, 1878.923 1222.974, 1871.863 1208.500 C 1868.643 1201.900, 1866.008 1197.175, 1866.007 1198 M 2982.804 1256.791 C 2979.700 1258.838, 2977.585 1261.149, 2971.172 1269.500 C 2968.638 1272.800, 2964.899 1277.300, 2962.864 1279.500 C 2960.829 1281.700, 2958.155 1284.850, 2956.923 1286.500 L 2954.682 1289.500 2957.314 1287 C 2958.762 1285.625, 2965.021 1278.443, 2971.223 1271.040 C 2978.417 1262.454, 2983.405 1257.357, 2985 1256.963 C 2988.447 1256.114, 2993.154 1257.553, 2995.250 1260.097 C 2997.475 1262.798, 2997.502 1268.823, 2995.304 1272.027 C 2989.633 1280.295, 2965.631 1307.405, 2948.500 1324.892 C 2909.269 1364.939, 2873.354 1394.422, 2823 1427.920 C 2724.161 1493.672, 2602.266 1546.671, 2447 1591.404 C 2402.730 1604.158, 2328.453 1624.235, 2263.500 1641.003 C 2066.717 1691.804, 1964.825 1725.469, 1863.821 1773.058 C 1842.408 1783.147, 1839.582 1783.736, 1834.923 1779.077 C 1831.748 1775.902, 1831.253 1772.733, 1833.249 1768.353 C 1834.251 1766.155, 1838.066 1763.888, 1852.499 1756.917 C 1873.951 1746.555, 1901.806 1734.173, 1918.827 1727.433 C 1925.607 1724.748, 1930.675 1722.392, 1930.089 1722.196 C 1929.504 1722.001, 1927.600 1722.552, 1925.858 1723.421 C 1924.117 1724.289, 1922.287 1725, 1921.791 1725 C 1921.012 1725, 1917.717 1726.340, 1909.500 1730 C 1908.400 1730.490, 1905.250 1731.840, 1902.500 1733 C 1899.750 1734.160, 1896.600 1735.510, 1895.500 1736 C 1894.400 1736.490, 1891.250 1737.867, 1888.500 1739.059 C 1882.029 1741.866, 1874.567 1745.272, 1864 1750.243 C 1832.532 1765.045, 1831 1766.097, 1831 1772.923 C 1831 1777.901, 1835.233 1782.880, 1840.119 1783.649 C 1843.122 1784.122, 1845.673 1783.283, 1855.119 1778.715 C 1875.873 1768.677, 1891.267 1761.726, 1913 1752.578 C 1920.425 1749.453, 1927.400 1746.482, 1928.500 1745.975 C 1929.600 1745.469, 1932.975 1744.122, 1936 1742.982 C 1939.025 1741.842, 1942.850 1740.308, 1944.500 1739.574 C 1946.150 1738.840, 1955.150 1735.439, 1964.500 1732.017 C 1973.850 1728.596, 1982.400 1725.436, 1983.500 1724.996 C 1984.600 1724.556, 1988.425 1723.207, 1992 1722 C 1995.575 1720.793, 1999.400 1719.416, 2000.500 1718.940 C 2001.600 1718.465, 2013.750 1714.408, 2027.500 1709.924 C 2041.250 1705.441, 2053.400 1701.405, 2054.500 1700.957 C 2055.600 1700.508, 2059.875 1699.167, 2064 1697.977 C 2068.125 1696.786, 2074.650 1694.781, 2078.500 1693.521 C 2082.350 1692.262, 2087.975 1690.527, 2091 1689.667 C 2094.025 1688.806, 2099.875 1687.146, 2104 1685.977 C 2108.125 1684.808, 2112.625 1683.471, 2114 1683.006 C 2116.355 1682.209, 2122.388 1680.469, 2131.500 1677.957 C 2133.700 1677.351, 2137.750 1676.184, 2140.500 1675.365 C 2143.250 1674.545, 2147.865 1673.237, 2150.755 1672.457 C 2153.645 1671.677, 2158.484 1670.364, 2161.509 1669.539 C 2164.534 1668.714, 2169.484 1667.364, 2172.509 1666.539 C 2183.321 1663.590, 2188.668 1662.150, 2200.500 1659 C 2216.653 1654.700, 2221.957 1653.281, 2228.750 1651.448 C 2231.912 1650.594, 2236.975 1649.285, 2240 1648.539 C 2243.025 1647.793, 2250.900 1645.750, 2257.500 1644 C 2264.100 1642.250, 2271.975 1640.207, 2275 1639.461 C 2278.025 1638.715, 2282.975 1637.440, 2286 1636.629 C 2289.025 1635.817, 2296.900 1633.734, 2303.500 1632 C 2310.100 1630.266, 2317.750 1628.250, 2320.500 1627.521 C 2323.250 1626.791, 2330.900 1624.766, 2337.500 1623.021 C 2350.529 1619.574, 2356.512 1617.972, 2365 1615.657 C 2368.025 1614.832, 2373.200 1613.430, 2376.500 1612.541 C 2384.139 1610.483, 2392.134 1608.303, 2398.500 1606.541 C 2401.250 1605.780, 2405.975 1604.484, 2409 1603.662 C 2412.025 1602.839, 2416.975 1601.426, 2420 1600.521 C 2423.025 1599.616, 2427.750 1598.268, 2430.500 1597.527 C 2436.256 1595.975, 2455.255 1590.530, 2462.250 1588.428 C 2464.863 1587.642, 2469.250 1586.325, 2472 1585.500 C 2474.750 1584.675, 2479.250 1583.325, 2482 1582.500 C 2484.750 1581.675, 2489.137 1580.378, 2491.750 1579.619 C 2500.199 1577.162, 2522.455 1569.879, 2524.033 1569.055 C 2524.876 1568.615, 2527.111 1567.915, 2529 1567.500 C 2530.889 1567.085, 2533.124 1566.381, 2533.967 1565.935 C 2534.810 1565.489, 2540.450 1563.491, 2546.500 1561.495 C 2552.550 1559.498, 2558.400 1557.490, 2559.500 1557.032 C 2560.600 1556.575, 2571.625 1552.484, 2584 1547.942 C 2596.375 1543.400, 2606.928 1539.305, 2607.450 1538.842 C 2607.973 1538.379, 2609.029 1538, 2609.799 1538 C 2610.568 1538, 2612.616 1537.386, 2614.349 1536.636 C 2616.082 1535.886, 2619.525 1534.456, 2622 1533.459 C 2627.534 1531.230, 2634.824 1528.192, 2637.500 1527 C 2644.753 1523.769, 2648.956 1522, 2649.375 1522 C 2649.811 1522, 2653.613 1520.325, 2668 1513.793 C 2670.475 1512.669, 2674.975 1510.636, 2678 1509.275 C 2692.689 1502.666, 2730.933 1484.044, 2738 1480.059 C 2741.319 1478.187, 2754.598 1470.917, 2765.500 1465.002 C 2769.645 1462.754, 2779.377 1457.069, 2786 1453.028 C 2786.825 1452.524, 2791.775 1449.527, 2797 1446.367 C 2806.161 1440.826, 2818.432 1432.933, 2820.500 1431.250 C 2821.050 1430.803, 2823.300 1429.350, 2825.500 1428.021 C 2827.700 1426.693, 2829.725 1425.333, 2830 1425 C 2830.275 1424.667, 2832.300 1423.307, 2834.500 1421.979 C 2836.700 1420.650, 2838.950 1419.229, 2839.500 1418.821 C 2874.774 1392.613, 2888.943 1381.799, 2892.986 1378 C 2893.864 1377.175, 2896.813 1374.707, 2899.541 1372.516 C 2904.034 1368.908, 2909.704 1363.983, 2913.953 1360 C 2914.833 1359.175, 2917.116 1357.215, 2919.027 1355.644 C 2923.316 1352.116, 2950.170 1325.720, 2959 1316.350 C 2969.575 1305.130, 2981.674 1291.309, 2989.500 1281.512 C 2991.150 1279.446, 2993.706 1276.362, 2995.180 1274.658 C 2999.542 1269.615, 2999.946 1262.930, 2996.128 1258.962 C 2992.063 1254.739, 2987.134 1253.936, 2982.804 1256.791 M 2134.500 1283.089 C 2128.450 1284.692, 2117.200 1287.314, 2109.500 1288.915 C 2101.800 1290.516, 2096.850 1291.845, 2098.500 1291.869 C 2100.150 1291.893, 2103.525 1291.465, 2106 1290.918 C 2108.475 1290.370, 2113.425 1289.308, 2117 1288.556 C 2120.575 1287.805, 2126.425 1286.455, 2130 1285.557 C 2133.575 1284.659, 2138.750 1283.430, 2141.500 1282.825 C 2144.250 1282.221, 2146.928 1281.338, 2147.450 1280.863 C 2148.952 1279.499, 2146.379 1279.941, 2134.500 1283.089 M 2503 1282.111 C 2503 1284.549, 2483.545 1314.161, 2480.078 1317 C 2479.743 1317.275, 2478.183 1319.075, 2476.612 1321 C 2465.335 1334.820, 2443.944 1354.651, 2426 1367.921 C 2420.775 1371.785, 2416.050 1375.310, 2415.500 1375.755 C 2414.950 1376.200, 2412.700 1377.650, 2410.500 1378.979 C 2408.300 1380.307, 2406.275 1381.643, 2406 1381.947 C 2405.725 1382.251, 2404.600 1383.036, 2403.500 1383.691 C 2402.400 1384.346, 2396.248 1388.059, 2389.828 1391.941 C 2383.409 1395.823, 2377.709 1399, 2377.161 1399 C 2376.614 1399, 2376.017 1399.338, 2375.833 1399.750 C 2375.464 1400.580, 2372.973 1401.952, 2359 1409.023 C 2349.464 1413.848, 2342.794 1416.971, 2333.500 1420.962 C 2330.750 1422.143, 2327.600 1423.510, 2326.500 1424 C 2320.759 1426.557, 2314.976 1428.920, 2310.500 1430.537 C 2307.750 1431.531, 2305.050 1432.643, 2304.500 1433.007 C 2303.950 1433.371, 2298.775 1435.364, 2293 1437.435 C 2287.225 1439.505, 2281.600 1441.561, 2280.500 1442.002 C 2279.400 1442.443, 2275.575 1443.793, 2272 1445 C 2268.425 1446.207, 2264.600 1447.574, 2263.500 1448.036 C 2262.400 1448.499, 2258.350 1449.843, 2254.500 1451.023 C 2250.650 1452.203, 2246.810 1453.523, 2245.967 1453.957 C 2245.124 1454.391, 2242.889 1455.085, 2241 1455.500 C 2239.111 1455.915, 2236.876 1456.621, 2236.033 1457.069 C 2235.190 1457.516, 2232.025 1458.561, 2229 1459.390 C 2223.893 1460.790, 2212.517 1464.019, 2205.500 1466.062 C 2202.677 1466.883, 2197.977 1468.174, 2185 1471.692 C 2181.975 1472.512, 2177.390 1473.817, 2174.812 1474.592 C 2172.234 1475.366, 2169.534 1476.003, 2168.812 1476.006 C 2166.617 1476.015, 2159.780 1478.113, 2160.289 1478.622 C 2160.990 1479.323, 2171.342 1476.780, 2197.863 1469.392 C 2243.076 1456.796, 2274.671 1446.171, 2314 1430.336 C 2397.492 1396.719, 2457.868 1353.097, 2493.356 1300.750 C 2500.809 1289.757, 2505.536 1281, 2504.017 1281 C 2503.458 1281, 2503 1281.500, 2503 1282.111 M 1501.500 1285.620 C 1499.850 1285.785, 1481.175 1286.393, 1460 1286.970 C 1438.825 1287.548, 1415.425 1288.471, 1408 1289.021 C 1400.575 1289.572, 1386.175 1290.480, 1376 1291.041 C 1322.168 1294.006, 1254.990 1300.362, 1192 1308.448 C 1163.321 1312.130, 1140.045 1315.515, 1109.500 1320.446 C 1104.550 1321.246, 1096.225 1322.589, 1091 1323.432 C 1072.208 1326.464, 1041.837 1331.928, 1024 1335.486 C 1019.875 1336.309, 1012.900 1337.650, 1008.500 1338.467 C 1004.100 1339.283, 997.125 1340.680, 993 1341.571 C 988.875 1342.462, 982.350 1343.836, 978.500 1344.625 C 968.090 1346.757, 959.284 1348.661, 952 1350.354 C 948.425 1351.185, 942.350 1352.556, 938.500 1353.401 C 929.870 1355.295, 919.427 1357.707, 911.500 1359.637 C 905.128 1361.189, 895.371 1363.437, 888.076 1365.035 C 882.968 1366.155, 880.247 1368.265, 878.453 1372.500 C 876.717 1376.598, 877.671 1380.517, 881.286 1384.132 C 884.051 1386.898, 884.771 1387.125, 889.410 1386.693 C 892.210 1386.432, 897.650 1385.478, 901.500 1384.573 C 905.350 1383.668, 910.750 1382.453, 913.500 1381.873 C 918.391 1380.842, 922.619 1379.091, 920.364 1379.030 C 919.739 1379.014, 912.694 1380.575, 904.709 1382.500 C 896.724 1384.425, 888.988 1386, 887.518 1386 C 883.559 1386, 879 1381.029, 879 1376.712 C 879 1371.748, 882.168 1368.291, 888.316 1366.546 C 897.037 1364.070, 957.074 1350.430, 982.500 1345.148 C 1110.928 1318.467, 1243.550 1300.534, 1371.500 1292.547 C 1419.234 1289.568, 1480.211 1287.013, 1503.827 1287.004 C 1513.910 1287, 1514.223 1287.069, 1517.077 1289.923 C 1521.012 1293.858, 1521.151 1299.576, 1517.404 1303.323 C 1515.144 1305.583, 1513.816 1305.963, 1507.154 1306.258 L 1499.500 1306.598 1507.115 1306.799 C 1515.933 1307.032, 1519.058 1305.385, 1521.007 1299.478 C 1521.975 1296.546, 1521.867 1295.390, 1520.330 1292.244 C 1517.430 1286.311, 1512.374 1284.532, 1501.500 1285.620 M 2945.500 1298.667 C 2930.855 1314.501, 2909.292 1335.253, 2892 1350.156 C 2887.325 1354.185, 2883.275 1357.721, 2883 1358.014 C 2882.725 1358.308, 2879.350 1361.001, 2875.500 1364 C 2871.650 1366.999, 2868.275 1369.719, 2868 1370.044 C 2867.725 1370.370, 2864.350 1373.025, 2860.500 1375.944 C 2856.650 1378.863, 2853.319 1381.737, 2853.099 1382.330 C 2852.681 1383.451, 2854.837 1381.846, 2871.500 1368.624 C 2885.525 1357.496, 2899.043 1345.718, 2915.957 1329.891 C 2930.938 1315.872, 2955.849 1289.993, 2954.347 1290.009 C 2953.881 1290.014, 2949.900 1293.910, 2945.500 1298.667 M 2002 1296.264 C 2005.490 1297.946, 2070.425 1297.915, 2074 1296.229 C 2076.016 1295.279, 2074.756 1295.191, 2067.500 1295.775 C 2055.902 1296.709, 2017.854 1296.712, 2007.500 1295.780 C 2000.905 1295.186, 1999.939 1295.271, 2002 1296.264 M 1441.500 1308.120 C 1431.050 1308.570, 1420.475 1309.128, 1418 1309.361 C 1411.361 1309.986, 1464.253 1308.849, 1480 1308.029 L 1493.500 1307.326 1477 1307.314 C 1467.925 1307.308, 1451.950 1307.670, 1441.500 1308.120 M 1379 1311.571 L 1362.500 1312.826 1382 1312.296 C 1402.225 1311.746, 1418.179 1310.217, 1403 1310.283 C 1398.875 1310.301, 1388.075 1310.881, 1379 1311.571 M 1336 1314.576 L 1322.500 1315.847 1337.500 1315.334 C 1352.947 1314.806, 1366.645 1313.188, 1355 1313.267 C 1351.975 1313.288, 1343.425 1313.877, 1336 1314.576 M 1299 1317.577 L 1287.500 1318.860 1300.500 1318.367 C 1313.923 1317.857, 1325.976 1316.156, 1315.500 1316.249 C 1312.750 1316.274, 1305.325 1316.872, 1299 1317.577 M 1268 1320.572 L 1258.500 1321.865 1269.739 1321.349 C 1281.340 1320.816, 1291.159 1319.116, 1282 1319.226 C 1279.525 1319.256, 1273.225 1319.861, 1268 1320.572 M 1243 1323.110 C 1231.127 1324.457, 1230.654 1324.917, 1241.718 1324.359 C 1251.945 1323.844, 1261.835 1322.118, 1254 1322.216 C 1252.075 1322.240, 1247.125 1322.642, 1243 1323.110 M 1120.500 1339.577 C 1112.250 1340.896, 1104.825 1342.154, 1104 1342.372 C 1100.851 1343.204, 1109.739 1342.836, 1114.500 1341.937 C 1117.250 1341.418, 1124.137 1340.370, 1129.805 1339.608 C 1135.472 1338.847, 1140.385 1337.948, 1140.721 1337.612 C 1141.792 1336.541, 1135.919 1337.112, 1120.500 1339.577 M 1033 1355.038 C 1024.254 1356.901, 1021.590 1357.720, 1025.435 1357.362 C 1028.699 1357.058, 1032.299 1356.458, 1033.435 1356.029 C 1034.571 1355.599, 1038.229 1354.932, 1041.565 1354.547 C 1044.901 1354.162, 1048.276 1353.438, 1049.065 1352.939 C 1051.465 1351.420, 1047.613 1351.923, 1033 1355.038 M 988 1363.848 C 981.125 1365.307, 976.499 1366.642, 977.720 1366.816 C 978.941 1366.989, 982.541 1366.468, 985.720 1365.657 C 988.899 1364.847, 993.750 1363.861, 996.500 1363.467 C 1001.849 1362.701, 1006.205 1361.003, 1002.500 1361.128 C 1001.400 1361.166, 994.875 1362.390, 988 1363.848 M 946 1372.871 C 939.675 1374.317, 935.431 1375.633, 936.569 1375.796 C 937.706 1375.958, 940.631 1375.594, 943.069 1374.986 C 945.506 1374.377, 950.318 1373.301, 953.762 1372.594 C 959.892 1371.336, 963.218 1369.881, 959.417 1370.121 C 958.362 1370.187, 952.325 1371.425, 946 1372.871 M 2842.355 1389.340 C 2837.875 1392.728, 2833.210 1396.175, 2831.989 1397 C 2830.768 1397.825, 2828.808 1399.231, 2827.634 1400.125 C 2822.578 1403.977, 2794.551 1422.208, 2784 1428.509 C 2777.675 1432.287, 2772.350 1435.743, 2772.167 1436.189 C 2771.983 1436.635, 2771.371 1437, 2770.806 1437 C 2770.240 1437, 2766.053 1439.250, 2761.500 1442 C 2756.947 1444.750, 2752.722 1447, 2752.111 1447 C 2751.500 1447, 2751 1447.489, 2751 1448.086 C 2751 1449.649, 2774.659 1436.069, 2800.500 1419.673 C 2809.868 1413.729, 2845.137 1389.174, 2849.500 1385.558 C 2855.508 1380.579, 2850.283 1383.345, 2842.355 1389.340 M 1521 1428.054 C 1502.025 1428.454, 1479.750 1429.279, 1471.500 1429.888 C 1463.250 1430.497, 1448.625 1431.452, 1439 1432.011 C 1406.823 1433.880, 1392.573 1434.877, 1383 1435.929 C 1377.775 1436.503, 1367.875 1437.450, 1361 1438.032 C 1354.125 1438.615, 1343.550 1439.511, 1337.500 1440.025 C 1323.981 1441.172, 1316.956 1442.207, 1319.172 1442.725 C 1320.092 1442.941, 1329.992 1442.198, 1341.172 1441.075 C 1409.591 1434.205, 1491.489 1429.401, 1550.829 1428.777 L 1577.158 1428.500 1579.579 1431.306 C 1582.880 1435.132, 1582.902 1441.189, 1579.626 1444.465 C 1576.474 1447.617, 1574.330 1447.814, 1536.500 1448.426 C 1404.060 1450.569, 1236.161 1469.042, 1094 1497.113 C 783.882 1558.349, 491.866 1670.786, 223.500 1832.289 C 153.495 1874.419, 67.907 1931.447, 25.623 1964.137 C 17.722 1970.246, 16.261 1971, 12.328 1971 C 6.645 1971, 3 1967.728, 3 1962.627 C 3 1960.722, 3.285 1958.420, 3.634 1957.511 C 5.457 1952.761, 89.061 1894.009, 146 1857.466 C 299.178 1759.157, 459.918 1677.475, 630.677 1611.173 C 676.917 1593.218, 701.571 1584.406, 755.500 1566.557 C 782.450 1557.638, 808.100 1549.143, 812.500 1547.679 C 817.472 1546.026, 819.034 1545.231, 816.627 1545.578 C 814.497 1545.885, 812.022 1546.507, 811.127 1546.959 C 810.232 1547.411, 806.125 1548.770, 802 1549.979 C 797.875 1551.187, 793.600 1552.530, 792.500 1552.962 C 791.400 1553.395, 787.125 1554.737, 783 1555.945 C 778.875 1557.153, 774.768 1558.529, 773.873 1559.002 C 772.978 1559.476, 770.611 1560.170, 768.612 1560.545 C 766.613 1560.920, 764.756 1561.587, 764.484 1562.026 C 764.212 1562.466, 762.194 1563.129, 760 1563.500 C 757.806 1563.871, 755.757 1564.585, 755.446 1565.087 C 755.136 1565.589, 753.896 1566.003, 752.691 1566.006 C 751.486 1566.010, 749.293 1566.642, 747.817 1567.412 C 746.342 1568.182, 743.657 1569.136, 741.850 1569.533 C 740.044 1569.930, 737.876 1570.631, 737.033 1571.090 C 736.190 1571.550, 730.325 1573.594, 724 1575.631 C 717.675 1577.669, 712.050 1579.670, 711.500 1580.079 C 710.950 1580.487, 708.808 1581.137, 706.739 1581.524 C 704.670 1581.910, 702.731 1582.626, 702.430 1583.113 C 702.129 1583.601, 701.189 1584, 700.342 1584 C 699.495 1584, 697.384 1584.640, 695.651 1585.422 C 693.918 1586.204, 689.350 1587.850, 685.500 1589.081 C 681.650 1590.311, 678.073 1591.696, 677.550 1592.159 C 677.028 1592.621, 675.903 1593.003, 675.050 1593.006 C 674.198 1593.010, 672.293 1593.642, 670.817 1594.412 C 669.342 1595.182, 666.760 1596.114, 665.079 1596.483 C 663.398 1596.852, 661.766 1597.569, 661.452 1598.077 C 661.139 1598.585, 660.121 1599.003, 659.191 1599.006 C 658.261 1599.010, 656.211 1599.685, 654.636 1600.506 C 653.060 1601.328, 651.260 1602.003, 650.636 1602.006 C 650.011 1602.010, 648.375 1602.593, 647 1603.303 C 645.625 1604.013, 641.575 1605.655, 638 1606.952 C 634.425 1608.250, 631.073 1609.691, 630.550 1610.155 C 630.028 1610.620, 628.971 1611, 628.201 1611 C 627.432 1611, 625.384 1611.628, 623.651 1612.396 C 621.918 1613.164, 617.800 1614.829, 614.500 1616.096 C 611.200 1617.363, 608.073 1618.760, 607.550 1619.200 C 607.028 1619.640, 605.971 1620, 605.201 1620 C 604.432 1620, 602.159 1620.708, 600.151 1621.574 C 598.143 1622.440, 595.150 1623.733, 593.500 1624.448 C 591.850 1625.163, 588.475 1626.559, 586 1627.551 C 583.525 1628.543, 579.475 1630.199, 577 1631.232 C 574.525 1632.264, 571.375 1633.576, 570 1634.147 C 568.625 1634.718, 566.226 1635.818, 564.669 1636.593 C 563.112 1637.367, 561.380 1638, 560.820 1638 C 560.260 1638, 558.384 1638.641, 556.651 1639.425 C 548.833 1642.962, 541.774 1646.053, 532.598 1649.958 C 527.152 1652.276, 521.977 1654.518, 521.098 1654.939 C 518.082 1656.386, 512.495 1658.881, 507.500 1661.012 C 500.823 1663.860, 497.633 1665.266, 490.500 1668.505 C 476.079 1675.054, 472.445 1676.759, 440.500 1691.964 C 421.867 1700.833, 370.592 1726.280, 370 1726.953 C 369.725 1727.265, 362.975 1730.786, 355 1734.777 C 347.025 1738.768, 337.800 1743.518, 334.500 1745.332 C 328.673 1748.536, 321.866 1752.258, 309.500 1758.999 C 303.759 1762.129, 295.328 1766.760, 290 1769.710 C 288.625 1770.471, 284.800 1772.654, 281.500 1774.560 C 278.200 1776.466, 274.579 1778.424, 273.454 1778.910 C 272.328 1779.397, 267.378 1782.231, 262.454 1785.209 C 257.529 1788.186, 252.825 1790.937, 252 1791.322 C 251.175 1791.707, 249.150 1792.916, 247.500 1794.008 C 245.850 1795.100, 243.262 1796.489, 241.750 1797.095 C 240.238 1797.700, 239 1798.602, 239 1799.098 C 239 1799.594, 238.508 1800, 237.906 1800 C 236.991 1800, 190.435 1827.742, 182.128 1833.238 C 180.682 1834.194, 178.825 1835.330, 178 1835.762 C 174.664 1837.510, 153.317 1851.190, 151.500 1852.745 C 150.950 1853.216, 149.825 1853.921, 149 1854.311 C 148.175 1854.702, 146.150 1855.912, 144.500 1857 C 142.850 1858.088, 140.488 1859.506, 139.250 1860.150 C 138.013 1860.794, 137 1861.699, 137 1862.161 C 137 1862.622, 136.579 1863, 136.066 1863 C 134.449 1863, 83.846 1896.720, 83.167 1898.249 C 82.983 1898.662, 82.403 1899, 81.876 1899 C 80.755 1899, 74.653 1903.155, 74.167 1904.250 C 73.983 1904.662, 73.407 1905, 72.885 1905 C 72.364 1905, 69.139 1907.055, 65.719 1909.567 C 58.936 1914.548, 43.474 1925.605, 39.942 1928 C 33.015 1932.697, 5.188 1953.586, 3.500 1955.356 C 2.075 1956.850, 1.500 1958.819, 1.500 1962.204 C 1.500 1968.905, 5.090 1972.500, 11.781 1972.500 C 16.274 1972.500, 17.360 1971.872, 33.008 1960.239 C 42.079 1953.495, 50.400 1947.332, 51.500 1946.543 C 56.706 1942.811, 70.703 1932.900, 72.366 1931.769 C 73.392 1931.071, 75.192 1929.782, 76.366 1928.905 C 78.342 1927.428, 94.132 1916.649, 112 1904.580 C 116.125 1901.794, 119.650 1899.173, 119.833 1898.757 C 120.017 1898.341, 120.566 1898, 121.054 1898 C 121.541 1898, 125.216 1895.807, 129.220 1893.127 C 139.289 1886.388, 161.663 1871.912, 166.500 1869.008 C 168.700 1867.686, 170.725 1866.324, 171 1865.980 C 171.275 1865.636, 172.175 1865.057, 173 1864.695 C 173.825 1864.332, 178.708 1861.327, 183.850 1858.018 C 188.993 1854.708, 193.605 1852, 194.100 1852 C 194.595 1852, 195 1851.657, 195 1851.237 C 195 1850.818, 195.895 1850.030, 196.988 1849.487 C 198.081 1848.944, 212.594 1840.352, 229.238 1830.394 C 263.715 1809.766, 275.953 1802.593, 284.500 1798.007 C 287.800 1796.236, 290.950 1794.442, 291.500 1794.020 C 292.050 1793.598, 295.425 1791.682, 299 1789.762 C 302.575 1787.843, 307.075 1785.382, 309 1784.294 C 310.925 1783.206, 315.425 1780.731, 319 1778.794 C 327.325 1774.283, 334.829 1770.185, 343 1765.689 C 364.996 1753.586, 451.130 1710.552, 472.500 1700.988 C 475.250 1699.758, 481.100 1697.050, 485.500 1694.972 C 489.900 1692.893, 495.750 1690.196, 498.500 1688.978 C 501.250 1687.760, 506.425 1685.443, 510 1683.829 C 524.592 1677.241, 530.629 1674.612, 548.679 1666.984 C 557.930 1663.074, 566.400 1659.478, 567.500 1658.992 C 568.600 1658.506, 571.750 1657.152, 574.500 1655.982 C 577.250 1654.813, 580.850 1653.270, 582.500 1652.554 C 584.150 1651.839, 587.750 1650.444, 590.500 1649.455 C 593.250 1648.465, 595.950 1647.361, 596.500 1647 C 597.050 1646.639, 599.750 1645.531, 602.500 1644.537 C 606.877 1642.956, 609.683 1641.815, 618.500 1638.033 C 619.600 1637.561, 623.200 1636.146, 626.500 1634.888 C 629.800 1633.630, 632.927 1632.240, 633.450 1631.800 C 633.972 1631.360, 635.097 1630.985, 635.950 1630.966 C 636.802 1630.947, 639.300 1630.063, 641.500 1629 C 643.700 1627.937, 646.261 1627.053, 647.191 1627.034 C 648.121 1627.015, 649.160 1626.550, 649.500 1626 C 649.840 1625.450, 650.879 1624.997, 651.809 1624.994 C 652.739 1624.990, 654.707 1624.358, 656.183 1623.588 C 657.658 1622.818, 660.240 1621.886, 661.921 1621.517 C 663.602 1621.148, 665.234 1620.431, 665.548 1619.923 C 665.861 1619.415, 666.811 1619, 667.658 1619 C 668.505 1619, 670.616 1618.378, 672.349 1617.618 C 677.041 1615.560, 708.504 1604, 709.413 1604 C 709.845 1604, 711.616 1603.368, 713.349 1602.597 C 715.082 1601.825, 721.450 1599.552, 727.500 1597.547 C 733.550 1595.542, 739.190 1593.531, 740.033 1593.078 C 740.876 1592.625, 743.126 1591.920, 745.033 1591.512 C 746.940 1591.103, 748.950 1590.423, 749.500 1590 C 750.050 1589.577, 752.075 1588.902, 754 1588.500 C 755.925 1588.098, 757.950 1587.423, 758.500 1587 C 759.050 1586.577, 761.075 1585.902, 763 1585.500 C 764.925 1585.098, 766.950 1584.423, 767.500 1584 C 768.050 1583.577, 770.060 1582.897, 771.967 1582.488 C 773.874 1582.080, 776.124 1581.386, 776.967 1580.947 C 777.810 1580.508, 783.900 1578.504, 790.500 1576.494 C 797.100 1574.484, 803.400 1572.483, 804.500 1572.046 C 805.600 1571.609, 809.875 1570.254, 814 1569.034 C 818.125 1567.815, 822.625 1566.444, 824 1565.989 C 825.375 1565.533, 829.200 1564.408, 832.500 1563.490 C 835.800 1562.571, 840.300 1561.227, 842.500 1560.504 C 844.700 1559.780, 848.975 1558.494, 852 1557.645 C 866.928 1553.458, 872.714 1551.774, 875 1550.949 C 876.375 1550.454, 879.300 1549.618, 881.500 1549.094 C 883.700 1548.569, 887.975 1547.405, 891 1546.507 C 896.218 1544.959, 899.146 1544.145, 912 1540.671 C 921.228 1538.177, 941.164 1532.953, 947.250 1531.435 C 950.413 1530.646, 955.587 1529.348, 958.750 1528.552 C 968.187 1526.176, 976.084 1524.239, 983.500 1522.482 C 987.350 1521.570, 993.200 1520.168, 996.500 1519.365 C 999.800 1518.563, 1005.425 1517.259, 1009 1516.467 C 1012.575 1515.675, 1018.425 1514.347, 1022 1513.517 C 1025.575 1512.686, 1031.875 1511.292, 1036 1510.419 C 1040.125 1509.546, 1046.200 1508.247, 1049.500 1507.533 C 1061.560 1504.924, 1071.671 1502.808, 1079 1501.362 C 1083.125 1500.548, 1089.875 1499.201, 1094 1498.368 C 1107.915 1495.558, 1131.348 1491.190, 1141.500 1489.513 C 1145.900 1488.786, 1153.775 1487.456, 1159 1486.558 C 1270.558 1467.379, 1392.562 1454.620, 1499 1451 C 1515.775 1450.430, 1540.212 1449.600, 1553.305 1449.157 L 1577.110 1448.351 1580.191 1445.270 C 1585.584 1439.877, 1583.726 1430.494, 1576.785 1428.075 C 1575.089 1427.484, 1569.606 1427.074, 1564.601 1427.164 C 1559.595 1427.254, 1539.975 1427.655, 1521 1428.054 M 1300 1444.044 C 1296.975 1444.457, 1289.775 1445.284, 1284 1445.882 C 1278.225 1446.479, 1272.150 1447.238, 1270.500 1447.569 C 1267.748 1448.119, 1259.831 1449.158, 1237 1451.965 C 1226.762 1453.224, 1222.695 1454.028, 1223.334 1454.667 C 1223.596 1454.930, 1235.891 1453.535, 1250.655 1451.568 C 1265.420 1449.600, 1286.500 1446.917, 1297.500 1445.604 C 1308.500 1444.291, 1314.800 1443.234, 1311.500 1443.256 C 1308.200 1443.277, 1303.025 1443.632, 1300 1444.044 M 2746.473 1450.375 C 2742.776 1452.952, 2723.542 1463.011, 2702.500 1473.371 C 2681.876 1483.525, 2678.414 1485.174, 2666.626 1490.455 C 2663.396 1491.902, 2660.970 1493.304, 2661.236 1493.570 C 2662.584 1494.917, 2744.819 1454.192, 2749.450 1449.884 C 2750.985 1448.456, 2748.680 1448.836, 2746.473 1450.375 M 1210 1456.039 C 1207.525 1456.464, 1200.775 1457.550, 1195 1458.453 C 1189.225 1459.357, 1180.450 1460.742, 1175.500 1461.533 C 1170.550 1462.324, 1162.576 1463.564, 1157.781 1464.288 C 1152.986 1465.012, 1148.711 1465.982, 1148.281 1466.444 C 1147.851 1466.905, 1149.300 1467, 1151.500 1466.653 C 1153.700 1466.307, 1167.200 1464.185, 1181.500 1461.938 C 1217.332 1456.309, 1223.390 1455.212, 1218.500 1455.243 C 1216.300 1455.256, 1212.475 1455.615, 1210 1456.039 M 1136.500 1468.039 C 1134.300 1468.472, 1128.450 1469.554, 1123.500 1470.442 C 1118.550 1471.330, 1111.125 1472.689, 1107 1473.462 C 1102.875 1474.235, 1096.018 1475.492, 1091.762 1476.255 C 1087.506 1477.018, 1083.681 1478.011, 1083.262 1478.463 C 1082.270 1479.530, 1087.196 1478.679, 1140 1468.661 C 1144.512 1467.805, 1146.106 1467.241, 1144 1467.244 C 1142.075 1467.248, 1138.700 1467.605, 1136.500 1468.039 M 1072 1480.162 C 1070.075 1480.688, 1065.350 1481.780, 1061.500 1482.589 C 1053.100 1484.353, 1043.401 1486.417, 1034.245 1488.390 C 1030.535 1489.189, 1024.457 1490.484, 1020.738 1491.267 C 1014.856 1492.506, 1010.841 1494.031, 1013.583 1493.985 C 1014.088 1493.976, 1029.800 1490.635, 1048.500 1486.561 C 1067.200 1482.486, 1080.925 1479.164, 1079 1479.179 C 1077.075 1479.193, 1073.925 1479.635, 1072 1480.162 M 1000.500 1495.742 C 997.200 1496.595, 992.700 1497.754, 990.500 1498.318 C 988.300 1498.883, 987.175 1499.478, 988 1499.642 C 988.825 1499.805, 994.675 1498.650, 1001 1497.074 C 1007.325 1495.498, 1011.150 1494.206, 1009.500 1494.201 C 1007.850 1494.197, 1003.800 1494.890, 1000.500 1495.742 M 2080.500 1495.121 C 2078.300 1495.610, 2073.125 1496.509, 2069 1497.118 C 2064.875 1497.726, 2060.825 1498.610, 2060 1499.082 C 2057.350 1500.597, 2061.697 1500.067, 2076.500 1497.069 C 2084.200 1495.509, 2089.150 1494.233, 2087.500 1494.232 C 2085.850 1494.231, 2082.700 1494.631, 2080.500 1495.121 M 2655.500 1495.454 C 2653.850 1496.229, 2650.250 1497.819, 2647.500 1498.986 C 2644.750 1500.154, 2641.600 1501.510, 2640.500 1502 C 2636.860 1503.621, 2627.761 1507.435, 2621.621 1509.913 C 2620.037 1510.552, 2618.973 1511.306, 2619.256 1511.589 C 2619.742 1512.076, 2652.549 1498.406, 2657.961 1495.462 C 2661.294 1493.648, 2659.358 1493.643, 2655.500 1495.454 M 978 1501.163 C 976.075 1501.690, 972.025 1502.598, 969 1503.181 C 965.975 1503.764, 963.050 1504.587, 962.500 1505.009 C 961.950 1505.431, 959.138 1506.094, 956.251 1506.482 C 953.364 1506.870, 950.750 1507.595, 950.442 1508.094 C 950.134 1508.592, 950.471 1508.966, 951.191 1508.924 C 954.166 1508.752, 986.296 1500.221, 984 1500.213 C 982.625 1500.209, 979.925 1500.636, 978 1501.163 M 2047.500 1501.112 C 2038.357 1503.126, 1995.793 1509.809, 1978 1512.024 C 1969.483 1513.083, 1962.698 1514.763, 1966.292 1514.921 C 1970.498 1515.106, 2056.862 1501.421, 2057.917 1500.403 C 2058.629 1499.714, 2051.702 1500.185, 2047.500 1501.112 M 941.500 1510.151 C 937.025 1511.612, 928.093 1513.980, 923 1515.056 C 917.323 1516.256, 915.574 1516.907, 916.241 1517.574 C 916.737 1518.070, 948.026 1510.239, 948.917 1509.395 C 949.710 1508.643, 944.488 1509.176, 941.500 1510.151 M 907.500 1519.151 C 905.850 1519.689, 902.025 1520.793, 899 1521.603 C 895.975 1522.413, 891.025 1523.753, 888 1524.582 C 884.975 1525.411, 880.700 1526.532, 878.500 1527.072 C 872.967 1528.430, 871.629 1528.963, 872.235 1529.569 C 872.655 1529.988, 910.844 1520.044, 914.500 1518.563 C 916.638 1517.697, 910.332 1518.227, 907.500 1519.151 M 2597.636 1519.506 C 2596.060 1520.328, 2594.260 1521.003, 2593.636 1521.006 C 2593.011 1521.010, 2591.293 1521.642, 2589.817 1522.412 C 2588.342 1523.182, 2585.760 1524.114, 2584.079 1524.483 C 2582.398 1524.852, 2580.766 1525.569, 2580.452 1526.077 C 2580.139 1526.585, 2579.263 1527, 2578.506 1527 C 2576.461 1527, 2571.643 1528.976, 2572.238 1529.571 C 2572.723 1530.057, 2601.810 1519.524, 2602.847 1518.486 C 2603.931 1517.402, 2600.311 1518.111, 2597.636 1519.506 M 1903.234 1521.986 C 1896.718 1522.727, 1893.494 1524.064, 1898.583 1523.914 C 1900.188 1523.867, 1905.775 1523.253, 1911 1522.550 C 1918.907 1521.486, 1919.578 1521.272, 1915 1521.273 C 1911.975 1521.273, 1906.680 1521.594, 1903.234 1521.986 M 863.579 1531.485 C 861.422 1532.253, 857.937 1533.173, 855.834 1533.528 C 853.731 1533.883, 851.789 1534.533, 851.518 1534.972 C 851.246 1535.410, 849.005 1536.072, 846.536 1536.442 C 844.067 1536.813, 841.785 1537.540, 841.464 1538.058 C 841.144 1538.576, 841.169 1539, 841.519 1539 C 842.578 1539, 870.468 1530.850, 870.917 1530.409 C 871.840 1529.502, 867.259 1530.174, 863.579 1531.485 M 1804.234 1533.986 C 1797.718 1534.727, 1794.494 1536.064, 1799.583 1535.914 C 1801.188 1535.867, 1806.775 1535.253, 1812 1534.550 C 1819.907 1533.486, 1820.578 1533.272, 1816 1533.273 C 1812.975 1533.273, 1807.680 1533.594, 1804.234 1533.986 M 1778.131 1537.079 C 1771.418 1537.949, 1768.638 1539.066, 1773.583 1538.905 C 1775.188 1538.853, 1781 1538.237, 1786.500 1537.536 C 1795.255 1536.420, 1795.753 1536.261, 1790.500 1536.257 C 1787.200 1536.255, 1781.634 1536.625, 1778.131 1537.079 M 2524 1545.709 C 2513.275 1549.286, 2503.873 1552.400, 2503.107 1552.630 C 2502.341 1552.859, 2501.975 1553.308, 2502.294 1553.628 C 2502.879 1554.213, 2546 1540.192, 2546 1539.417 C 2546 1538.522, 2542.821 1539.431, 2524 1545.709 M 1617 1558.082 C 1614.525 1558.540, 1607.423 1559.548, 1601.217 1560.323 C 1595.011 1561.098, 1589.649 1562.018, 1589.300 1562.366 C 1588.247 1563.419, 1592.626 1562.982, 1612.500 1560.051 C 1622.950 1558.510, 1629.250 1557.249, 1626.500 1557.250 C 1623.750 1557.250, 1619.475 1557.625, 1617 1558.082 M 2472.500 1562.178 C 2469.200 1563.270, 2465.808 1564.521, 2464.962 1564.958 C 2464.115 1565.395, 2461.530 1566.073, 2459.217 1566.463 C 2455.349 1567.117, 2452.171 1569.074, 2455.191 1568.943 C 2457.554 1568.841, 2482.550 1560.203, 2480.500 1560.198 C 2479.400 1560.195, 2475.800 1561.086, 2472.500 1562.178 M 1359 1603.150 C 1357.075 1603.669, 1352.682 1604.679, 1349.238 1605.393 C 1343.617 1606.558, 1340.001 1608, 1342.699 1608 C 1343.862 1608, 1365.950 1603.140, 1367.500 1602.543 C 1369.606 1601.732, 1362.328 1602.251, 1359 1603.150 M 1307.500 1615.035 C 1302.673 1616.371, 1291.907 1618.979, 1286.500 1620.123 C 1281.194 1621.246, 1277.123 1622.981, 1280 1622.894 C 1282.852 1622.807, 1315.491 1614.222, 1313 1614.213 C 1311.625 1614.209, 1309.150 1614.578, 1307.500 1615.035 M 1270.500 1624.151 C 1268.850 1624.689, 1265.025 1625.793, 1262 1626.603 C 1258.975 1627.413, 1254.135 1628.724, 1251.245 1629.518 C 1239.091 1632.856, 1234.279 1634.144, 1230.500 1635.072 C 1225.028 1636.415, 1223.629 1636.962, 1224.204 1637.537 C 1224.595 1637.928, 1262.354 1628.038, 1275.500 1624.102 C 1278.267 1623.274, 1278.306 1623.203, 1276 1623.188 C 1274.625 1623.179, 1272.150 1623.612, 1270.500 1624.151 M 1216 1639.169 C 1214.625 1639.743, 1211.250 1640.794, 1208.500 1641.507 C 1203.470 1642.809, 1196.752 1644.746, 1187.500 1647.561 C 1184.750 1648.398, 1180.700 1649.540, 1178.500 1650.099 C 1176.300 1650.658, 1174.072 1651.539, 1173.550 1652.057 C 1172.074 1653.522, 1174.065 1653.214, 1180.593 1650.967 C 1183.842 1649.849, 1194.600 1646.646, 1204.500 1643.850 C 1214.400 1641.054, 1222.688 1638.594, 1222.917 1638.383 C 1223.808 1637.564, 1218.366 1638.183, 1216 1639.169 M 1162.500 1655.195 C 1159.200 1656.296, 1155.600 1657.577, 1154.500 1658.040 C 1153.400 1658.504, 1151.043 1659.169, 1149.261 1659.519 C 1146.454 1660.069, 1143.464 1662.100, 1145.691 1661.943 C 1147.868 1661.790, 1172.229 1653.203, 1170.500 1653.198 C 1169.400 1653.195, 1165.800 1654.093, 1162.500 1655.195 M 1120 1669.277 C 1118.625 1669.972, 1114.125 1671.609, 1110 1672.914 C 1105.875 1674.218, 1102.072 1675.672, 1101.550 1676.143 C 1101.027 1676.614, 1100.044 1677, 1099.365 1677 C 1097.463 1677, 1092.660 1678.993, 1093.218 1679.551 C 1093.617 1679.950, 1116.279 1672.260, 1124.500 1668.936 L 1126.500 1668.127 1124.500 1668.070 C 1123.400 1668.038, 1121.375 1668.581, 1120 1669.277 M 1083.328 1682.355 C 1079.933 1683.541, 1076.820 1684.846, 1076.411 1685.256 C 1076.002 1685.665, 1075.022 1686, 1074.234 1686 C 1073.447 1686, 1071.384 1686.621, 1069.651 1687.380 C 1067.918 1688.140, 1064.025 1689.739, 1061 1690.934 C 1057.975 1692.129, 1054.600 1693.487, 1053.500 1693.950 C 1052.400 1694.414, 1049.025 1695.764, 1046 1696.950 C 1042.975 1698.137, 1039.600 1699.487, 1038.500 1699.950 C 1037.400 1700.414, 1034.025 1701.764, 1031 1702.950 C 1027.975 1704.137, 1024.600 1705.477, 1023.500 1705.929 C 1022.400 1706.381, 1020.204 1707.274, 1018.621 1707.913 C 1017.037 1708.552, 1015.941 1709.275, 1016.186 1709.519 C 1016.430 1709.763, 1028.526 1705.196, 1043.065 1699.371 C 1057.604 1693.545, 1074.433 1687.007, 1080.463 1684.843 C 1086.493 1682.678, 1091.631 1680.703, 1091.880 1680.453 C 1092.845 1679.488, 1089.238 1680.290, 1083.328 1682.355" stroke="none" fill="#80d95c" fill-rule="evenodd"/><path d="M 2139 938.602 C 2117.630 940.448, 2109.332 941.385, 2095 943.571 C 2066.619 947.898, 2033.711 956.829, 2007 967.453 C 1982.960 977.016, 1949.831 996.024, 1931.762 1010.622 C 1891.439 1043.203, 1867.168 1083.589, 1860.546 1129.128 C 1855.416 1164.400, 1863.046 1198.808, 1882.193 1226.753 C 1901.353 1254.720, 1935.456 1278.138, 1973 1289.111 C 2008.539 1299.497, 2055.802 1299.596, 2106.941 1289.389 C 2174.452 1275.916, 2219.099 1256.028, 2249.083 1226.072 C 2262.635 1212.534, 2271 1201.202, 2271 1196.383 C 2271 1191.580, 2266.776 1187, 2262.345 1187 C 2257.265 1187, 2255.654 1188.214, 2249.383 1196.773 C 2226.233 1228.368, 2187.191 1250.103, 2126.761 1265.040 C 2052.787 1283.324, 1997.374 1281.854, 1952.043 1260.405 C 1925.794 1247.985, 1902.286 1226.156, 1890.775 1203.513 C 1880.475 1183.250, 1876.253 1159.186, 1878.942 1136.072 C 1885.579 1079.028, 1924.313 1029.828, 1988 997.543 C 2029.674 976.417, 2070.589 965.020, 2127 958.822 C 2143.940 956.961, 2197.327 957.239, 2218.537 959.298 C 2325.226 969.657, 2407.117 1002.254, 2460.563 1055.637 C 2496.507 1091.537, 2518.794 1135.883, 2524.068 1181.995 C 2525.704 1196.297, 2524.729 1220.585, 2522.002 1233.500 C 2504.971 1314.145, 2432.687 1382.549, 2314 1430.336 C 2215.097 1470.158, 2108.453 1495.672, 1949.899 1517.446 C 1922.357 1521.228, 1895.148 1524.598, 1816 1534.028 C 1571.807 1563.124, 1439.822 1584.556, 1305 1617.007 C 1196.294 1643.171, 1088.318 1678.680, 998.500 1717.802 C 935.790 1745.117, 868.744 1780.274, 813.500 1814.811 C 772.241 1840.604, 713.418 1883.162, 711.019 1888.955 C 707.421 1897.641, 717.211 1905.456, 725.162 1900.245 C 726.626 1899.285, 735.626 1892.606, 745.162 1885.402 C 805.967 1839.466, 885.267 1791.780, 957 1758.016 C 1053.061 1712.801, 1145.730 1679.097, 1252.829 1650.419 C 1404.763 1609.737, 1549.897 1585.073, 1835 1551.486 C 2001.458 1531.875, 2085.133 1518.221, 2172.500 1496.412 C 2238.229 1480.005, 2296.923 1460.163, 2346.500 1437.591 C 2430.704 1399.254, 2491.421 1348.494, 2521.848 1291 C 2544.489 1248.218, 2550.320 1199.787, 2538.473 1152.922 C 2524.314 1096.907, 2489.647 1048.118, 2437.850 1011.306 C 2390.471 977.634, 2321.920 952.887, 2250 943.491 C 2219.357 939.488, 2210.615 938.893, 2177.500 938.558 C 2158.800 938.368, 2141.475 938.388, 2139 938.602 M 2985 1256.965 C 2983.411 1257.358, 2978.555 1262.306, 2971.674 1270.542 C 2904.099 1351.429, 2818.725 1416.526, 2707 1472.353 C 2609.161 1521.241, 2503.750 1557.988, 2334 1602.386 C 2161.554 1647.488, 2115.130 1660.237, 2055 1679.006 C 1976.737 1703.435, 1910.267 1729.008, 1852.499 1756.915 C 1838.067 1763.887, 1834.250 1766.155, 1833.249 1768.353 C 1831.253 1772.733, 1831.748 1775.902, 1834.923 1779.077 C 1839.582 1783.736, 1842.408 1783.147, 1863.821 1773.058 C 1964.825 1725.469, 2066.717 1691.804, 2263.500 1641.003 C 2328.453 1624.235, 2402.730 1604.158, 2447 1591.404 C 2602.266 1546.671, 2724.161 1493.672, 2823 1427.920 C 2873.354 1394.422, 2909.269 1364.939, 2948.500 1324.892 C 2965.631 1307.405, 2989.633 1280.295, 2995.304 1272.027 C 2997.502 1268.823, 2997.475 1262.798, 2995.250 1260.097 C 2993.153 1257.552, 2988.446 1256.113, 2985 1256.965 M 1460.500 1288.075 C 1297.121 1293.740, 1139.185 1312.597, 982.500 1345.148 C 957.074 1350.430, 897.037 1364.070, 888.316 1366.546 C 882.168 1368.291, 879 1371.748, 879 1376.712 C 879 1380.981, 883.561 1386, 887.440 1386 C 888.866 1386, 898.463 1384, 908.767 1381.556 C 973.214 1366.268, 1046.881 1351.483, 1105.500 1342.072 C 1231.488 1321.845, 1351.898 1310.535, 1478.888 1307 C 1504.501 1306.287, 1514.722 1305.668, 1515.888 1304.758 C 1518.995 1302.333, 1519.937 1300.468, 1519.968 1296.673 C 1519.992 1293.751, 1519.309 1292.155, 1517.077 1289.923 L 1514.154 1287 1498.327 1287.156 C 1489.622 1287.242, 1472.600 1287.656, 1460.500 1288.075 M 1542.500 1428.637 C 1500.799 1429.477, 1433.324 1433.091, 1385.500 1437.046 C 1192.227 1453.027, 1000.776 1490.037, 813.543 1547.611 C 784.547 1556.527, 711.196 1581.100, 683.989 1591.011 C 495.659 1659.622, 314.349 1749.421, 146 1857.466 C 89.061 1894.009, 5.457 1952.761, 3.634 1957.511 C 3.285 1958.420, 3 1960.722, 3 1962.627 C 3 1967.728, 6.645 1971, 12.328 1971 C 16.261 1971, 17.722 1970.246, 25.623 1964.137 C 42.374 1951.187, 81.525 1923.574, 113 1902.510 C 269.033 1798.092, 427.602 1714.019, 600.500 1644.041 C 794.598 1565.483, 998.068 1509.442, 1203 1478.098 C 1313.412 1461.211, 1439.467 1449.996, 1536.500 1448.426 C 1574.330 1447.814, 1576.474 1447.617, 1579.626 1444.465 C 1582.897 1441.194, 1582.880 1435.135, 1579.588 1431.306 C 1577.244 1428.579, 1576.887 1428.498, 1566.838 1428.428 C 1561.152 1428.388, 1550.200 1428.482, 1542.500 1428.637" stroke="none" fill="#177548" fill-rule="evenodd"/></svg>